<?xml version="1.0" encoding="utf-8"?>
<!-- Generator: Adobe Illustrator 24.3.0, SVG Export Plug-In . SVG Version: 6.00 Build 0)  -->
<svg version="1.1" id="Calque_1" xmlns="http://www.w3.org/2000/svg" xmlns:xlink="http://www.w3.org/1999/xlink" x="0px" y="0px"
	 viewBox="0 0 100 104" style="enable-background:new 0 0 100 104;" xml:space="preserve">
<path d="M49.6,96.1c-3.8-0.1-7.6-0.7-11.3-1.2c-4.9-0.7-9.6-2.3-14.4-3.5c-4.1-1-8-2.5-11.7-4.6c-2.5-1.4-4.5-3.4-6.6-5.2
	c-1-0.9-1-2.4-1.1-3.8c-0.2-2.6-0.6-5.3-0.4-7.9c0.3-2.9,0.5-5.7,1.6-8.4c0.9-2.5,1.9-4.9,3.7-6.9c1.7-1.9,4-2.4,6.1-3.4
	c2.8-1.2,5.7-1.8,8.7-1.9c3.9-0.2,7.8-0.7,11.7-0.5c0.6,0,1.2,0,1.8-0.1c1.9-0.1,3.3,0.5,4.8,1.8c1.9,1.8,4,3.6,5.9,5.4
	c2,1.9,5.6,1.7,8.4-0.2c1.4-1,2.2-2.3,3-3.6c0.5-0.9,1.3-1.4,2.3-1.6c2.4-0.5,4.8-0.6,7.1-0.5c2.4,0.1,4.8-0.4,7.2-0.3
	c3.3,0.1,6.6-0.1,9.6,1.6c2.1,1.2,3.4,3.1,4.7,5C93.3,60.2,94,64.6,95,69c1,4.7,1,9.5,1.1,14.3c0,0.8-0.1,1.5-1.2,1.5
	c-0.4,0-0.8,0.4-1.2,0.6c-5.2,3.7-10.8,6.7-17,8.4c-3.3,0.9-6.6,1.6-10,1.9c-2.3,0.2-4.6,0.1-6.9,0.2c-2.7,0.1-5.4,0.1-8,0.2
	C51.1,96.1,50.4,96.1,49.6,96.1z M47.6,92.8c4.5,0,9-0.1,13.4,0.1c4,0.1,7.9-0.4,11.7-1.7c3.4-1.2,6.6-2.7,9.8-4.3
	c1.2-0.6,2.4-1.1,3.7-1.5c2.8-1.1,3.5-4,5.3-5.9c0.1-0.1,0.1-0.3,0.1-0.5c0-1.4-0.3-2.8,0.4-4.2c0.1-0.2,0.2-0.5,0.2-0.8
	c-0.5-4.1-0.6-8.3-1.9-12.3c-1-2.9-2.8-5.4-5.5-6.9c-2.5-1.3-5.4-1.3-8.2-1.5c-3.8-0.3-7.5,0.5-11.2,0.5c-1.7,0-3.2,0.4-4.1,2
	c-0.7,1.2-1.9,1.9-2.9,2.8c-0.5,0.4-1,0.7-1.5,1.1c-1.8,1.5-5.1,1.8-7.2,0.8c-1.1-0.6-2-1.6-3.1-2.1c-1.5-0.7-2.7-1.8-4-2.8
	c-1.4-1.1-2.6-2.4-4.5-2.6c-1.6-0.2-3.2-0.1-4.8,0c-1,0.1-2,0.6-3.1-0.2c-0.4-0.3-1.2-0.3-1.8-0.2c-3.5,0.7-7.1,1.1-10.6,2.4
	c-3.4,1.3-6.5,2.9-8.6,6c-1.2,1.8-1.6,3.7-1.7,5.7c-0.1,1.6,0.9,3.3-0.3,4.8c-0.1,0.1-0.1,0.3,0,0.5c0.2,1.7,0,3.5,0.2,5.2
	c0.1,1.1-0.3,2.4,1,3.2c4.1,2.7,8.6,4.8,13,6.8c3.6,1.6,7.4,2.5,11.2,3.4C37.5,91.6,42.5,92.3,47.6,92.8z"/>
<path d="M51.2,4.3C58.3,5.1,64,8.2,68,14.2c2.4,3.6,3.4,7.6,3.5,11.9c0,0.5-0.2,1.1-0.3,1.5c-1.2,3.5-2.9,6.8-5.8,9.3
	c-1.4,1.2-3,2.4-4.7,3.2c-3.7,1.8-7.5,3.6-11.8,3.6c-2.9,0-5.7-0.8-8.3-2.1c-1.9-0.9-3.8-1.7-5.6-2.9c-1.7-1.1-2.8-2.6-3.4-4.3
	c-1.5-4.2-2.6-8.5-2.2-12.9c0.2-2.7,1.2-5.3,2.1-7.9c0.2-0.6,0.7-1.2,1.1-1.7c0.6-0.7,1.4-1.3,1.3-2.5c0-0.4,0.3-0.6,0.6-0.8
	c1.8-1.1,3.4-2.4,5.4-3.3c2.1-0.9,4.4-0.9,6.6-1C48.1,4.2,49.7,4.1,51.2,4.3z M48.8,8.2C47,8,44.6,8.4,42.5,9.5
	c-1.9,1-3.9,2.1-5.3,4c-1.2,1.6-2.2,3.3-3,5.1c-0.9,2.2-0.4,4.6-0.1,6.9c0.3,2.4,1.2,4.7,2.4,7c1.7,3.2,4,5.6,7.4,6.9
	c1.8,0.7,3.6,1.5,5.5,1.5c2.5,0,4.9-0.8,7.2-1.7c2.5-1,4.5-2.9,6.6-4.5c1.8-1.4,2.8-3.4,3.2-5.7c0.7-3.7,0.1-7.3-1.7-10.6
	c-1.4-2.5-3-5.1-5.4-6.7C56.4,9.8,53,8.7,48.8,8.2z"/>
</svg>
