<?xml version="1.0" encoding="utf-8"?>
<!-- Generator: Adobe Illustrator 24.3.0, SVG Export Plug-In . SVG Version: 6.00 Build 0)  -->
<svg version="1.1" id="Calque_1" xmlns="http://www.w3.org/2000/svg" xmlns:xlink="http://www.w3.org/1999/xlink" x="0px" y="0px"
	 viewBox="0 0 95 67" style="enable-background:new 0 0 95 67;" xml:space="preserve">
<style type="text/css">
	.st0{fill:#FFFFFF;}
</style>
<path class="st0" d="M57,15.7c-0.1-0.7-0.1-1.4-0.2-2c0.3,0.2,0.3,0.4,0.3,0.6c0.5,1.3,0.7,2.7,0.8,4.1c0.1,0.9,0,1.8-0.3,2.6
	c-0.3,0.9-0.7,1.9-1.1,2.8c-0.2,0.5-0.7,0.8-0.9,1.4c-0.1,0.1-0.2,0.2-0.2,0.4c-0.2,1.4-1.3,2.3-1.9,3.4c-0.3,0.5-0.7,0.9-0.9,1.5
	c-0.1,0.3-0.3,0.5-0.6,0.7c-1,0.9-1.9,1.9-2.6,3c-0.2,0.3-0.5,0.5-0.8,0.7c-0.7,0.5-1.3,1.1-1.8,1.8c-0.1,0.2-0.5,0.5,0.2,0.5
	c0.2,0,0.1,0.2,0.1,0.3c-0.1,0.2-0.3,0.3-0.6,0.5c-1,0.6-2.2,1.1-3,2c-0.1,0.1-0.2,0.2-0.4,0.2c-0.6-0.1-1,0.3-1.4,0.6
	c-1.2,0.6-2.2,1.7-3.3,2.3c-0.8,0.5-1.6,1-2.5,1.3c-0.9,0.3-1.6,0.8-2.3,1.3c-0.6,0.4-1.3,0.9-2.1,0.7c-0.2,0-0.5,0.1-0.7,0.2
	c-0.9,0.4-1.7,0.8-2.5,1.2c-0.5,0.2-1,0.6-1.5,0.5c-0.1,0-0.1,0-0.2,0c-0.9,0.9-2.2,0.7-3.2,0.9c-2.2,0.5-4.4,0.6-6.6,0.8
	c-1,0.1-2,0.3-3,0.3c-0.4,0-0.8,0.1-1-0.5c-0.1-0.2-0.2-0.2-0.5-0.2c-0.8,0-1.4-0.5-2.2-0.6c-0.4-0.1-0.7-0.5-0.9-0.9
	c-0.9-1.3-1.8-2.6-2.7-3.8c-0.5-0.6-0.8-1.4-1.2-2.1c-0.7-1.1-0.6-2.3-0.4-3.5c0-0.7,0.1-1.2,0.1-1.7c0.1-0.7,0.3-1.5,0.6-2.2
	c1.7-3.2,3.8-6.2,6.3-8.9c1-1.1,2.1-2.2,3-3.4c0.7-0.8,1.5-1.4,2.3-2.1c1.3-1,2.6-2.1,3.9-3.1c0.9-0.7,1.8-1.3,2.7-1.9
	c2-1.3,4-2.6,6.2-3.7c1.7-0.8,3.3-1.7,5.1-2.1c1.3-0.3,2.5-0.7,3.7-1.1c1-0.3,2-0.7,3-0.8c1.2-0.2,2.4-0.4,3.7-0.3
	c0.7,0.1,1.4-0.1,2-0.2c0.9-0.1,1.8,0,2.6,0.3c0.3,0.1,0.6,0.2,0.9,0.3c0.4,0.2,0.9-0.1,1.2,0.5c0.2,0.3,0.7,0.4,0.9,0.9
	c0.1,0.2,0.2,0.3,0.4,0.3c0.7,0.1,0.9,0.5,0.9,1.1c0.1,0.3,0.2,0.5,0.5,0.7c0.8,0.9,1.2,2,1.6,3.1C56.6,15,56.6,15.4,57,15.7z
	 M54.8,23c-0.3,0-0.4,0.2-0.4,0.5c0,0.3-0.1,0.6-0.3,0.8c-0.6,0.6-0.5,1.3-0.2,1.9c0.1-0.1,0.2-0.1,0.2-0.1c0.7-0.9,1.4-1.7,0.7-2.9
	C54.7,23.1,54.7,23,54.8,23c0.2-0.1,0.2,0.3,0.4,0.3c0.5-0.9,1.2-1.7,0.6-2.8c-0.1,0.1-0.2,0.1-0.2,0.2c-0.2,0.5-0.5,1.1-0.7,1.6
	C54.7,22.5,54.7,22.7,54.8,23z M8.9,37.6c-0.2-0.3,0.2-0.7,0.1-1c-0.5,0.5-0.5,0.5-0.3,1.1C8.8,37.6,8.9,37.6,8.9,37.6
	c0,0.2-0.1,0.4,0,0.6c0.4-0.2,0.5-0.7,1-0.8c0.1,0.5-0.2,0.7-0.3,1c-0.2,0.5,0.3,0.3,0.5,0.5c-0.7,0.7-1.3,1.4-1.8,2.5
	c0.3-0.2,0.5-0.2,0.7-0.3c0.3-0.2,0.5-0.8,0.9-0.5c0.3,0.2-0.2,0.6-0.3,0.9c-0.1,0.5-0.1,0.5,0.5,0.5c-0.2,0.2-0.5,0.4-0.5,0.7
	c0,0.1,0.1,0.2,0.2,0.3c0.1,0,0.1,0,0.2,0c0.2-0.2,0.3-0.6,0.1-0.9c0.1-0.2,0.2-0.5,0.4-0.3c0.5,0.2,0.1,0.6,0.2,1
	c0.5-0.1,0.9,0.2,0.8,0.9c0.3-0.1,0.6-0.1,1-0.2c-0.2,0.2-0.2,0.2-0.3,0.3c-0.3,0.4-0.3,0.4,0.1,0.7s0.9,0.3,1.3,0.4
	c1.9,0.2,3.8-0.1,5.7-0.3c1-0.1,1.9-0.3,2.8-0.6c0.6-0.2,1.3-0.4,1.8-0.6c1.8-0.8,3.8-1.1,5.5-2.2c0.2-0.1,0.5-0.3,0.7-0.2
	c0.5,0,0.9-0.2,1.2-0.5c1.1-1,2.5-1.5,3.5-2.5c2.3-1.2,4.3-2.8,6.3-4.5c0.7-0.6,1.6-1.1,2.1-1.9c0.5-0.7,1.1-1.1,1.7-1.6
	c0.2-0.1,0.3-0.2,0.5-0.3c0.3-0.3,0.9-0.6,0.9-1.1c-0.1-0.6,0.3-0.6,0.6-0.7c0.5-0.1,1-0.2,1.3-0.6c0.4-0.5,0.8-1,1.1-1.4
	s0.7-1,0.9-1.5c0.5-0.9,0.9-1.9,1.3-2.9c0.4-0.9,0.6-1.8,0.7-2.8c-0.2-0.1-0.2,0.3-0.5,0.2c0.1-0.9,0.2-1.7,0.3-2.6
	c0.1-0.5,0.2-1,0-1.5C52,13.9,51.9,13.5,52,13c0-0.2,0-0.3-0.2-0.5c-0.2-0.2-0.3,0.2-0.5,0.1c-0.1-1.2-1-1.7-1.8-2.2
	c-0.1-0.1-0.4-0.1-0.5-0.1c-0.4,0.2-0.7,0.2-0.8-0.3c-0.1-0.2-0.3-0.3-0.5-0.2c-0.5,0.2-0.9,0.3-1.2,0.7c-0.1,0.1-0.2,0.3,0,0.4
	c0.1,0.1,0.3,0.1,0.4,0.1c0.2-0.1,0.2-0.3,0.3-0.5c0.1-0.1,0.1-0.2,0.3-0.1c0.1,0.1,0.2,0.1,0.2,0.2c0.1,0.1,0,0.2-0.1,0.3
	c-0.1,0.1-0.2,0.2-0.3,0.2c-0.5,0.1-0.9,0.3-1.3,0.6c-0.8,0.7-1.7,0.4-2.6,0.6c0.6-0.5,1.1-1,1.8-1.1c0.3-0.1,0.5-0.2,0.7-0.4
	c0.1-0.1,0.3-0.2,0.2-0.5c-0.1-0.2-0.3-0.2-0.5-0.2c-0.3,0.1-0.6,0.3-0.8,0.5c-0.4,0.2-0.5,0.2-0.9-0.1c-0.1-0.1-0.2-0.1-0.3-0.1
	c-0.3,0.1-0.5,0.3-0.7,0.5c-0.4,0.3-0.7,0.7-1.3,0.6c0-0.3,0.6-0.3,0.4-0.7c-0.5,0-0.9,0.2-1,0.6c-0.2,0.6-0.7,0.7-1.1,1
	c-0.2,0.1-0.4,0.1-0.5-0.1c-0.1-0.2,0.1-0.3,0.2-0.4c0.1-0.1,0.2-0.1,0.2-0.2c0.1-0.1,0-0.2-0.1-0.2c-0.2-0.1-1.3,0.5-1.4,0.7
	c0,0.1,0,0.1,0,0.2c0.6,0.4,0,0.5-0.2,0.6c-0.2,0.2-0.6,0.2-0.9,0.1c-0.6-0.1-1.1,0.1-1.7,0.5c-0.2,0.1-0.3,0.2-0.6,0.3
	c-0.1,0.1-0.2,0.1-0.3-0.1c-0.1-0.2,0-0.3,0.2-0.3s0.3-0.1,0.5-0.2c0.6-0.1,1.1-0.5,1.5-1c-0.3-0.1-0.6,0.1-1,0.2
	c-1,0.4-1.9,0.9-2.9,1.3c-1.3,0.5-2.5,1.1-3.7,1.9c-1.3,0.9-2.7,1.7-4,2.6c-1,0.6-1.7,1.7-2.7,2.3c-0.3,0.2-0.6,0.5-0.9,0.7
	c-0.2,0.1-0.3,0.3-0.1,0.5c0.6,0.8,1,1.7,1.8,2.3c0.3,0.2,0.5,0.2,0.7,0c1.7-1,3.3-2.1,4.9-3.2c0.3-0.2,0.3-0.5,0.1-0.7
	c-0.3-0.5-0.9-0.8-1.3-1.3c-0.5-0.5-0.3-0.8,0.3-1c0.4-0.1,0.7,0,1,0.3c0.2,0.3,0.4,0.5,0.6,0.7c0.8,1,0.8,1,1.9,0.3
	c2.1-1.4,4.4-2.5,6.8-3.2c0.4-0.1,0.6-0.4,1-0.5c0.7-0.1,1.4-0.3,2.1-0.6c0.8-0.3,1.6-0.5,2.4-0.8c0.1,0.5-0.6,0.4-0.5,0.9
	c0.5,0.2,1,0.2,1.5,0.1c0.4,1,0.4,1,1.2,0.4c0.1-0.1,0.3-0.2,0.4-0.3c0.6-0.4,1.3-0.7,1.9-1c-1,0.7-1,0.7-1.1,1.1
	c0.9-0.4,0.9-0.4,1.4-0.3c-0.7,0.6-0.7,0.6-1.8,0.6c-0.3,0-0.8,0.4-0.8,0.6c0,0.4,0.3,0.2,0.5,0.2c0,0,0.1,0,0.1,0.1
	c0.1,0.5,0.5,0.8,0.6,1.2c0.2,0.6,0.6,1,0.4,1.7c-0.1,0.1,0,0.3,0.1,0.4c0.2,0.1,0.1,0.2,0,0.3c-0.3,0.5-0.8,0.5-1.2,0.7l-0.1-0.1
	c0-0.7-0.6-0.3-1-0.5c-0.1-0.6,0.6-0.8,0.6-1.3c-0.3-0.1-0.4,0.2-0.7,0.3c0-0.1-0.1-0.1-0.1-0.2c0.3-0.7-0.2-1.1-0.5-1.7
	c-0.2-0.3-0.6-0.5-0.9-0.3c-0.5,0.2-0.7,0-1.1-0.2c-0.1-0.1-0.3-0.2-0.4-0.2c-0.9,0.1-1.7-0.1-2.5,0.1c-0.9,0.2-1.7,0.5-2.5,0.8
	c-2.1,0.8-4,1.8-5.8,3c-0.5,0.3-0.6,0.5-0.2,0.9c0.8,0.8,1.3,1.9,2.2,2.6c0.2,0.2,0.5,0.4,0.5,0.9c-0.5,0.1-0.8-0.1-1.1-0.5
	c-0.7-0.9-1.7-1.5-2.3-2.5c-0.1-0.2-0.3-0.3-0.5-0.4c-0.1-0.1-0.2-0.1-0.3-0.1c-0.6,0.5-1.4,0.7-1.9,1.2c-0.4,0.4-0.9,0.9-1.4,0.9
	c-0.7,0.2-1.3,0.6-1.8,1c-0.5,0.3-0.5,0.5-0.1,0.9c0.7,0.7,1.5,1.5,2.2,2.3c0.6,0.7,0.6,0.7,0,1.5c-0.1,0-0.2-0.1-0.3-0.2
	c-1-1.1-2.2-1.9-3.1-3c-0.2-0.3-0.5-0.3-0.7-0.1c-0.5,0.4-1,0.7-1.5,1.1c-2,1.5-4.1,2.9-5.6,4.9c-0.5,0.6-1,1.1-1.1,1.8
	c-0.1,0.6-0.2,1.3-0.4,1.9c-0.2,0.6-0.2,1.1,0,1.7c0.1,0.6,0.4,1,0.6,1.5c0.2,0.7,0.8,1.1,1.5,1.2c0.8,0.2,1.7,0.3,2.3-0.5
	c0.2-0.3,0.6-0.5,0.9-0.7c0.3-0.2,0.7-0.5,1.1-0.3c0.5,0.2,0.2,0.7,0.2,1c0.1,0.5-0.1,1.1-0.5,1.4c-0.5,0.4-1.1,0.7-1.8,0.6
	c-0.7-0.1-1.4-0.1-2.2-0.3c-1.3-0.3-2.2-1-2.8-2.1c-0.5-0.8-0.6-1.7-0.8-2.6c-0.1-0.7-0.1-1.3,0.1-2c0.5-1.3,1-2.6,2-3.7
	s2.1-2.1,3.1-3c1.3-1.1,2.5-2.1,3.9-3c0.5-0.3,0.5-0.5,0.1-0.9c-0.6-0.6-1.1-1.2-1.7-1.8c-0.2-0.2-0.3-0.2-0.5-0.1
	c-1.3,1-2.6,2.1-3.7,3.3c-0.9,1.1-1.8,2.2-2.6,3.3c-0.1,0.1-0.2,0.2-0.2,0.1c-0.4-0.5-0.5,0.1-0.6,0.2c-0.2,0.5-0.1,1.1-0.1,1.7
	c-0.1,0.3-0.1,0.6-0.2,0.9c-0.2,0.4-0.6,0.7-0.3,1.3c0.1,0.2-0.3,0.6-0.3,0.5c-0.2-0.3-0.3-0.2-0.5,0.1c-0.5,0.6-0.9,1.1-1.3,1.7
	c-0.2,0.3-0.4,0.7-0.3,1.1C9.5,37,9.3,37.3,8.9,37.6z M38,37.6c0.1,0.1,0.2,0.1,0.2,0c1.5-0.9,3-1.8,4.5-2.7c0.5-0.3,1-0.7,1.5-1.1
	c1.3-1.1,2.6-2.4,3.8-3.7c0.3-0.4,0.9-0.6,0.9-1.3c0-0.2,0.1-0.2,0.2-0.2c0.2,0,0.3-0.1,0.3-0.2c0.2-0.8,0.8-1.2,1.3-1.7
	c0.2-0.2,0.4-0.4,0.4-0.7c0-0.4,0.2-0.7,0.5-1c0.6-1,1.4-1.9,1.9-3c0.2-0.3,0.4-0.6,0.3-0.9c-0.2-0.5,0.1-0.9,0.2-1.3
	c0.3-0.7,0.6-1.5,0.7-2.2c0.4-1.6,0-3.1-0.6-4.6c-0.2-0.5-0.5-0.9-0.5-1.4c-0.1-0.5-0.3-0.8-0.8-1c-0.6-0.2-1.2-0.6-1.8-1
	c-0.3-0.2-0.7-0.4-1-0.5c-0.3-0.1-0.7-0.3-0.9,0.1c-0.2,0.4,0.3,0.5,0.6,0.6c0.8,0.2,1.5,0.6,1.9,1.3c0.1,0.2,0.2,0.3,0.4,0.3
	c0.3,0.2,0.5,0.5,0.6,0.7c0.5,0.9,0.5,2.1,1.1,2.9c0,0,0,0.1,0,0.1c0,1.8-0.1,3.5-1,5.1c-0.4,0.7-0.8,1.5-1,2.4
	c0.4-0.3,0.4-0.9,0.8-1.1c0.1,0.1,0.1,0.1,0.1,0.2c0,0.1-0.1,0.2-0.1,0.2c-0.8,1.8-2.3,3.2-3.1,5c-0.7,0.5-1,1.2-1.6,1.7
	c-1.4,1.2-2.7,2.3-4.1,3.5c-0.5,0.5-1.4,0.6-1.5,1.5c0,0.1-0.2,0.1-0.2,0.1c-1.3,0.9-2.5,1.9-3.7,2.9C38.2,37.2,38,37.3,38,37.6z
	 M16.8,47.5c0-0.7,0.5-0.9,1.1-0.9c0.2,0,0.4-0.1,0.6-0.1c0.7-0.1,1.5-0.1,2.1-0.5c0.2-0.1,0.5-0.1,0.7-0.1c1.5,0,2.9-0.5,4.2-1.3
	c1-0.6,1.9-1.3,3-1.7c0.4-0.2,0.7-0.4,1.1-0.6c0-0.1-0.1-0.1-0.1-0.2c-1.4,0.2-2.6,1.1-4,1.4c-1.4,0.3-2.6,1.2-4.1,1.5
	c-0.1-0.3,0.3-0.3,0.1-0.6c-0.1,0-0.2-0.1-0.2,0c-1.2,0.2-2.3,0.6-3.5,0.9c-0.2,0.1-0.3,0.1-0.5,0.2c-0.2,0.3-0.6,0.3-0.9,0.4
	c-0.9,0.2-1.8-0.1-2.7-0.2c-1.8-0.2-3.3-0.9-4.6-2.2c-0.2-0.1-0.3-0.3-0.5-0.3c-0.8-0.1-1-0.7-1.3-1.3c-0.2-0.5-0.5-1-0.4-1.5
	c0.1-0.2-0.1-0.3-0.3-0.5c-0.1,0.2-0.1,0.3-0.1,0.4c-0.1,1.8,0.6,3.2,1.7,4.6C8.5,44.9,8.5,45,8.6,45c0.5,0.2,1,0.6,1.4,0.8
	c1,0.6,1.9,1,3.1,1.1c0.8,0.1,1.5-0.2,2.3-0.3c0.3-0.1,0.7-0.1,0.7,0.5C16.2,47.4,16.5,47.5,16.8,47.5z M24.3,17.3
	c-0.1,0.1-0.2,0.1-0.3,0.1c-1,0.6-1.9,1.2-2.9,1.9c-1.1,0.9-2.3,1.7-3.4,2.6c-1.1,1-2.3,1.9-3.5,3c-1.5,1.3-2.7,2.9-3.9,4.5
	c-0.4,0.5-0.8,1-1,1.6c0.6-0.6,1.4-1.1,1.9-1.8c2.2-2.4,4.3-4.8,6.8-7c0.9-0.7,1.7-1.6,2.6-2.2C22,19.2,23.1,18.2,24.3,17.3z
	 M42.9,38c0-0.1,0-0.2-0.1-0.3c-0.1-0.2-0.1-0.4-0.1-0.6c-0.2-0.5-0.5-0.6-0.9-0.3c-1.1,0.8-2.3,1.7-3.5,2.5
	c-0.2,0.1-0.4,0.2-0.3,0.5c0.1,0.6,0.2,1,0.7,1.4c0.5,0.3,0.7-0.1,1-0.3c0.6-0.3,0.7-0.6,0.5-1.3c-0.1-0.2-0.1-0.4-0.2-0.6
	c0-0.1,0.1-0.2,0.2-0.2s0.2,0.1,0.2,0.2c0.1,0.2,0.1,0.4,0.1,0.6c0.1,0.3,0.2,0.5,0.6,0.3c0.5-0.3,1-0.7,1.5-1
	C42.8,38.5,42.9,38.3,42.9,38z M48.2,32c-0.2,0-0.4,0.2-0.5,0.3c-0.8,0.9-1.7,1.8-2.7,2.5c-0.3,0.2-0.3,0.8-0.1,1.1
	c0.1,0.1,0.8,0.2,1,0.1c0.3-0.3,0.7-0.6,1.1-0.9c0.2-0.2,0.3-0.5,0.1-0.7c-0.1-0.2-0.4-0.3-0.2-0.5c0.2-0.2,0.3,0.1,0.5,0.3
	c0.1,0.1,0.3,0.3,0.5,0.1c0.4-0.3,0.8-0.7,1-1.2C48.9,32.5,48.4,32.2,48.2,32z M22.6,47.7c-0.5-0.5-1-0.5-1.5-0.2
	c-0.2,0.2-0.5,0.1-0.7,0.2c-0.2,0.1-0.4,0.1-0.4,0.4c0,0.2,0.1,0.5,0.3,0.5c0.2,0.1,0.3,0.1,0.5,0.1c1.4-0.1,2.7-0.6,4-1.1
	c0.3-0.2,0.3-0.3,0.1-0.6c-0.2-0.2-0.4-0.3-0.7-0.3c-0.5,0.1-0.9,0.3-1.3,0.4C22.4,47.1,22.6,47.4,22.6,47.7z M35.5,43.1
	c-0.1-0.1-0.1-0.2-0.2-0.3c-0.1-0.2-0.3-0.3-0.4-0.5c-0.2-0.2-0.1-0.7-0.5-0.7c-0.3,0-0.6,0.2-0.9,0.3c-0.2,0.1-0.4,0.2-0.6,0.3
	c-0.7,0.5-0.8,0.9-0.3,1.6c0.2,0.3,0.5,0.5,0.8,0.3c0.6-0.3,1.2-0.6,1.8-0.9C35.5,43.3,35.5,43.2,35.5,43.1z M36,42.6
	c0.3-0.2,0.4,0.1,0.7,0.1c1.2-0.3,1.5-1,1-2.1c-0.1-0.1-0.1-0.2-0.2-0.3c-0.1-0.2-0.3-0.3-0.6-0.2c-0.5,0.3-1,0.6-1.5,0.9
	c-0.4,0.2-0.4,0.6-0.3,0.9C35.4,42.3,35.5,42.7,36,42.6z M6.4,40.9c0-0.5,0.1-0.9,0.1-1.3c0.1-1.3,0.4-2.6,1-3.8
	c0.6-1.1,1.1-2.3,1.7-3.4c0.1-0.1,0.1-0.2-0.1-0.3c-0.3,0.2-0.5,0.5-0.6,0.7C7.9,34,7.4,35,6.9,36.2c-0.3,0.9-0.6,1.7-0.8,2.6
	C6,39.5,6,40.3,6.4,40.9z M32.7,12.4c-0.9,0-1.4,0.6-2.1,0.9c-1.8,1-3.6,2-5.3,3.2c0.3,0.2,0.5,0,0.6-0.1c1.9-1.1,3.9-2.2,5.8-3.2
	C32.2,13.1,32.5,12.8,32.7,12.4z M30.9,45.3c0.5-0.2,1-0.3,1.5-0.7c0.1-0.1,0.1-0.2,0.1-0.3c-0.2-0.4-0.2-0.9-0.6-1.1
	c-0.3-0.2-0.6,0.2-0.9,0.3c-0.2,0.1-0.3,0.1-0.5,0.2c-0.3,0.1-0.5,0.3-0.3,0.7C30.3,44.8,30.5,45.2,30.9,45.3z M29.6,44.3
	c-0.3,0-0.5,0.3-0.7,0.3c-0.3,0.1-0.5,0.3-0.8,0.4c-0.2,0.1-0.6,0.1-0.5,0.5c0,0.4,0.3,0.6,0.6,0.8c0.3,0.1,1.5-0.3,1.8-0.6
	c0.3-0.4-0.1-0.7-0.2-1.1C29.8,44.5,29.7,44.4,29.6,44.3z M43.4,37.9c1.5-0.7,1.6-1.1,0.9-2.3c0-0.1-0.1-0.1-0.1-0.2
	c-0.1-0.1-0.2-0.2-0.3-0.1c-0.5,0.2-0.8,0.5-1.1,0.8c-0.1,0.1-0.1,0.2,0,0.3C43.2,36.8,43.1,37.4,43.4,37.9z M56.4,20.7
	c1.1-0.7,1.1-2.1,0.1-3.5c-0.2,0.2-0.1,0.3-0.1,0.6c-0.1,0.6,0,1.1-0.3,1.7C55.7,19.8,55.8,20.3,56.4,20.7z M26.1,47.1
	c0.3-0.1,0.6-0.2,0.9-0.3c0.6-0.2,0.6-0.3,0.3-0.9c-0.2-0.3-0.3-0.5-0.7-0.3c-0.3,0.2-0.6,0.2-1,0.4c-0.2,0.1-0.5,0.1-0.5,0.4
	c0,0.3,0.3,0.4,0.5,0.5C25.8,47,25.9,47.1,26.1,47.1z M50.7,30.8c1.1-0.7,1.6-2.1,1-3c-0.3,0.5-0.6,1-0.9,1.5
	C50.5,29.8,50.4,30.2,50.7,30.8z M49.2,32.5c1.2-1,1.3-1.3,0.9-2.2c-0.3,0.2-0.5,0.5-0.8,0.7c-0.7,0.5-0.7,0.5-0.2,1.3
	C49.1,32.3,49.1,32.4,49.2,32.5z M52.5,28.2c0.2-0.4,0.5-0.7,0.7-1.1c0.2-0.3,0.2-0.6-0.1-1c-0.2-0.4-0.3-0.3-0.5-0.1
	C52.1,26.6,52,27.4,52.5,28.2z M32.9,42c0.9-0.5,1.7-0.9,2.5-1.4c0.1-0.1,0.3-0.1,0.2-0.3c-0.1-0.2-0.3-0.2-0.5-0.1
	c-0.7,0.3-1.3,0.7-2,1C32.9,41.3,32.8,41.6,32.9,42z M18.4,49.1c0.2-0.1,0.5-0.1,0.8-0.2c0.2-0.1,0.3-0.1,0.4-0.3
	c0-0.2-0.1-0.3-0.3-0.4c-0.5-0.3-0.9,0-1.4,0.2c-0.2,0.1-0.3,0.1-0.3,0.3c0,0.2,0.1,0.3,0.3,0.4C18,49.1,18.2,49.1,18.4,49.1z
	 M12.9,48.1c0,0.5,0.2,0.9,0.6,1c0.4,0.1,0.8,0.1,1.2,0c0.3,0,0.3-0.2,0.2-0.5c-0.1-0.1-0.2-0.2-0.3-0.2
	C14,48.4,13.5,48.3,12.9,48.1z M7.6,33.7c-1.1,1.1-1.4,2.6-1.7,4.1C6.5,36.5,7,35,7.6,33.7z M12.5,48.8c-0.2-0.9-0.4-1-1.4-0.6
	C11.5,48.7,11.5,48.7,12.5,48.8z M46.9,29.3c0.7-0.4,1.4-0.7,1.7-1.8C47.7,28,47.3,28.6,46.9,29.3z M11.6,31.8
	c-0.1-0.1-0.1-0.1-0.1-0.1h-0.1c-0.5,0.3-0.7,0.8-0.9,1.3c-0.1,0.1,0,0.3,0.2,0.3C11.2,32.9,11.3,32.4,11.6,31.8z M16.1,49.1
	c0.2,0,0.3,0,0.5-0.1c0.2,0,0.3-0.1,0.3-0.2c0-0.2-0.1-0.3-0.3-0.4c-0.3-0.1-0.7,0-1,0.1c-0.2,0.1-0.2,0.2-0.1,0.4
	C15.7,49.1,15.9,49.1,16.1,49.1z M6.4,41.7c-0.6,0.4-0.5,1,0.4,1.6C6.6,42.8,6.6,42.2,6.4,41.7z M46.1,8.7c0.3,0,0.6-0.1,0.6-0.4
	C46.8,8.1,46.6,8,46.4,8C46,8,45.7,8.2,45.7,8.5C45.7,8.7,45.9,8.7,46.1,8.7z M53.1,17.4c0.1-0.9,0.3-1.8-0.2-2.6
	C53.1,15.6,52.9,16.5,53.1,17.4z M42,9.8c-0.6-0.1-1.1,0.1-1.5,0.5C41.1,10.3,41.6,10.3,42,9.8z M8.8,39.1c-0.6,0.6-0.6,0.6-0.5,1.3
	C8.4,40,8.6,39.7,8.8,39.1z M55.9,22.8c-0.5,0.6-0.5,0.6-0.3,1.3C55.7,23.7,55.9,23.3,55.9,22.8z M8.1,37.6
	c-0.4,0.6-0.4,0.6-0.1,1.1C8,38.4,8.2,38,8.1,37.6z M21.1,21.8c0-0.1-0.1-0.2-0.1-0.2c-0.2,0-0.3,0.2-0.3,0.4c0,0.1,0.1,0.2,0.1,0.2
	C21,22.2,21.1,22,21.1,21.8z M48.5,9.4c0.2,0,0.5-0.1,0.5-0.3c0-0.1-0.1-0.2-0.2-0.2C48.7,9,48.4,9,48.4,9.2
	C48.4,9.4,48.4,9.4,48.5,9.4z M43.4,31.8c-0.5,0.2-0.5,0.2-0.6,0.6C43,32.2,43.3,32.2,43.4,31.8z M31.2,41.6
	c-0.3,0.1-0.6,0.1-0.9,0.5C30.8,42,31,41.8,31.2,41.6z M12.5,45.1c0.1,0.3,0.2,0.5,0.5,0.4c0.1,0,0.1-0.2,0.1-0.2
	C13,45,12.8,44.9,12.5,45.1z M49.4,29.6c0.2-0.1,0.2-0.2,0.2-0.3c0-0.1-0.1-0.2-0.2-0.2c-0.2,0.1-0.2,0.2-0.2,0.3
	C49.2,29.5,49.3,29.6,49.4,29.6z M37,38.1c-0.1,0-0.2,0.1-0.3,0.2c-0.1,0.1,0,0.1,0.1,0.1C36.9,38.4,37,38.4,37,38.1
	C37.1,38.2,37,38.2,37,38.1z M39.8,10.3c-0.1,0.1-0.1,0.1-0.1,0.2c0,0.2,0.1,0.1,0.2,0.1c0.1,0,0.2-0.1,0.1-0.2
	C40,10.3,39.9,10.3,39.8,10.3z"/>
<path class="st0" d="M49.1,24.9c-0.3,0.6-0.9,0.6-1.3,0.9c-0.3,0.2-0.6,0.2-0.6,0.6c-0.1,0.3-0.3,0.4-0.6,0.5
	c-0.6,0.2-1.1,0.5-1.4,1.1c-0.2,0.4-0.7,0.5-1.1,0.6c0-0.1,0-0.1,0-0.2c0.7-0.5,1.1-1.2,1.3-2c0.1-0.2,0.2-0.4,0.5-0.5
	c1.1-0.2,2.1-0.7,3.2-1.1C48.9,24.7,49,24.8,49.1,24.9z"/>
<path class="st0" d="M45.3,13.5c-0.4,0.3-0.8,0.7-1.5,0.6c-0.3-0.1-0.6,0.3-1,0.4c-0.3,0.1-0.5,0.2-0.9,0.3c0.1-0.4,0.4-0.4,0.5-0.5
	c0.5-0.3,0.9-0.6,1.4-0.9C44.4,13.1,44.8,12.9,45.3,13.5z"/>
<path class="st0" d="M42.5,27.4c0,0.3,0,0.7,0.5,0.4c0.2-0.2,0.5-0.2,0.8-0.2c-0.1,0.3-0.3,0.5-0.6,0.6c-0.2,0.2-0.5,0.3-0.1,0.6
	c0.2,0.1-0.2,0.6-0.5,0.5c-0.3-0.1-0.6,0-0.9-0.1c0.1-0.3,0.4-0.5,0.6-0.6c0.1-0.1,0.2-0.2,0.2-0.3c-0.1-0.2-0.3-0.2-0.5-0.1
	c-0.2,0.1-0.3,0.2-0.6,0.1C42,27.9,42.2,27.6,42.5,27.4C42.6,27.4,42.5,27.4,42.5,27.4z"/>
<path class="st0" d="M40.4,13.5c-0.7,0.9-1.6,0.9-2.6,0.9c0.4-0.5,0.8-0.7,1.3-0.9C39.5,13.8,39.9,13.3,40.4,13.5z"/>
<path class="st0" d="M44.4,22.4c0.1-0.6,0.6-0.9,2-1.2C45.9,21.7,45.8,21.8,44.4,22.4z"/>
<path class="st0" d="M40.9,26.8c0.1-0.3,0.3-0.5,0.5-0.7c0.2-0.2,0.4-0.2,0.4-0.6c0-0.3,0.3-0.4,0.9-0.3
	C42.3,25.9,41.9,26.7,40.9,26.8L40.9,26.8z"/>
<path class="st0" d="M45.9,18.4c0.3-0.6,0.9-0.7,1.4-1.1C47.1,17.9,47.1,17.9,45.9,18.4z"/>
<path class="st0" d="M43.3,25c0.4-0.4,0.7-0.6,1-0.7c0.1-0.1,0.2-0.1,0.2,0c0.1,0.1,0.1,0.2,0,0.3C44.2,24.8,43.9,24.9,43.3,25z"/>
<path class="st0" d="M46.7,16.4c0.3-0.4,0.5-0.6,0.9-0.7c0.1-0.1,0.2-0.1,0.3,0.1c0.1,0.2,0,0.3-0.1,0.3
	C47.4,16.2,47.2,16.4,46.7,16.4z"/>
<path class="st0" d="M47.4,14.8c-0.3,0.5-0.7,0.6-1.3,0.7C46.4,14.9,47.1,15.1,47.4,14.8z"/>
<path class="st0" d="M46.1,22.8c0,0.2,0.1,0.2,0,0.2c-0.3,0.2-0.5,0.5-0.9,0.4c-0.1,0-0.1-0.1-0.1-0.2
	C45.4,22.9,45.7,22.9,46.1,22.8z"/>
<path class="st0" d="M40.8,30c-0.1-0.1-0.1-0.1-0.2-0.1c-0.1-0.1-0.1-0.2,0.1-0.3c0.2-0.1,0.3-0.2,0.5-0.2c0.1,0,0.2,0,0.2,0.1
	c0.1,0.1,0,0.2-0.1,0.3C41.2,29.8,41.1,30,40.8,30z"/>
<path class="st0" d="M40.9,26.8c-0.3,0.2-0.5,0.5-0.9,0.6h0.1C40.1,26.7,40.3,26.6,40.9,26.8L40.9,26.8z"/>
<path class="st0" d="M45.9,19.7c0.2-0.4,0.5-0.4,0.9-0.4C46.6,19.7,46.3,19.7,45.9,19.7z"/>
<path class="st0" d="M43.3,23.3c-0.1,0.5-0.3,0.6-0.7,0.6C42.7,23.5,43,23.4,43.3,23.3z"/>
<path class="st0" d="M37.4,14.5c-0.2,0.3-0.4,0.4-0.8,0.2C36.9,14.5,37.1,14.4,37.4,14.5z"/>
<path class="st0" d="M45.2,17.3c0.2-0.3,0.4-0.3,0.6-0.3c0.1,0.1,0.1,0.1,0.1,0.2C45.6,17.2,45.5,17.5,45.2,17.3z"/>
<path class="st0" d="M31.3,15.4c0.2-0.1,0.3-0.2,0.5-0.3c0.1,0.1,0.2,0.1,0.1,0.1c-0.2,0.1-0.3,0.2-0.5,0.3
	C31.4,15.5,31.4,15.4,31.3,15.4z"/>
<path class="st0" d="M40.8,25.5c-0.1,0-0.2-0.1-0.1-0.2c0.1-0.1,0.1-0.2,0.2-0.2c0.1,0,0.2,0.1,0.1,0.2
	C40.9,25.4,40.9,25.5,40.8,25.5z"/>
<path class="st0" d="M53.2,19.2c0.3,0.3,0.3,0.7,0.1,1.2C52.9,19.9,53.1,19.5,53.2,19.2z"/>
<path class="st0" d="M84,33.5c0-0.5-0.1-0.9-0.2-1.4c0.2,0.1,0.2,0.3,0.2,0.4c0.3,0.9,0.5,1.9,0.6,2.8c0,0.6,0,1.2-0.2,1.8
	c-0.2,0.6-0.5,1.3-0.8,1.9c-0.2,0.4-0.5,0.6-0.6,0.9c0,0.1-0.1,0.2-0.1,0.3c-0.2,0.9-0.9,1.6-1.3,2.4c-0.2,0.4-0.5,0.6-0.6,1.1
	c0,0.2-0.2,0.3-0.4,0.5c-0.7,0.6-1.3,1.3-1.8,2.1c-0.1,0.2-0.4,0.3-0.6,0.5c-0.5,0.4-0.9,0.8-1.3,1.2c-0.1,0.1-0.4,0.4,0.1,0.4
	c0.1,0,0.1,0.1,0,0.2c-0.1,0.2-0.2,0.2-0.4,0.3c-0.7,0.4-1.5,0.8-2.1,1.4c-0.1,0.1-0.2,0.2-0.3,0.2c-0.4-0.1-0.7,0.2-1,0.4
	c-0.8,0.4-1.5,1.1-2.3,1.6c-0.6,0.3-1.1,0.7-1.7,0.9c-0.6,0.2-1.1,0.6-1.6,0.9c-0.4,0.3-0.9,0.6-1.4,0.5c-0.2,0-0.3,0.1-0.5,0.2
	c-0.6,0.3-1.2,0.6-1.7,0.8c-0.4,0.2-0.7,0.4-1.1,0.3c0,0-0.1,0-0.1,0c-0.6,0.6-1.5,0.5-2.2,0.6c-1.5,0.3-3,0.4-4.6,0.6
	c-0.7,0-1.4,0.2-2.1,0.2c-0.3,0-0.6,0-0.7-0.3c0-0.1-0.2-0.2-0.3-0.2c-0.6,0-1-0.4-1.5-0.4c-0.3,0-0.5-0.4-0.6-0.6
	c-0.6-0.9-1.2-1.8-1.9-2.7c-0.4-0.4-0.6-1-0.8-1.5c-0.5-0.8-0.4-1.6-0.3-2.4c0-0.5,0-0.8,0-1.1c0-0.5,0.2-1,0.4-1.5
	c1.2-2.2,2.7-4.3,4.4-6.1c0.7-0.8,1.4-1.5,2.1-2.3c0.5-0.6,1-0.9,1.6-1.4c0.9-0.7,1.8-1.4,2.7-2.1c0.6-0.5,1.2-0.9,1.9-1.3
	c1.4-0.9,2.8-1.8,4.3-2.6c1.1-0.6,2.3-1.2,3.5-1.5c0.9-0.2,1.7-0.5,2.5-0.8c0.7-0.2,1.4-0.5,2.1-0.6c0.8-0.1,1.7-0.3,2.5-0.2
	c0.5,0,0.9-0.1,1.4-0.1c0.6-0.1,1.2,0,1.8,0.2c0.2,0.1,0.4,0.1,0.6,0.2c0.3,0.1,0.6,0,0.8,0.4c0.1,0.2,0.5,0.3,0.6,0.6
	c0,0.1,0.2,0.2,0.3,0.2c0.5,0,0.6,0.4,0.6,0.8c0,0.2,0.2,0.4,0.3,0.5c0.6,0.6,0.8,1.4,1.1,2.1C83.7,33,83.8,33.3,84,33.5z
	 M82.5,38.6c-0.2,0-0.3,0.1-0.3,0.3c0,0.2-0.1,0.4-0.2,0.6c-0.4,0.4-0.4,0.9-0.2,1.3c0.1,0,0.1,0,0.1-0.1c0.5-0.6,0.9-1.2,0.5-2
	C82.4,38.7,82.5,38.6,82.5,38.6c0.2,0,0.2,0.2,0.3,0.2c0.4-0.6,0.8-1.1,0.4-1.9c-0.1,0-0.1,0.1-0.2,0.1c-0.2,0.4-0.3,0.8-0.5,1.1
	C82.5,38.2,82.4,38.4,82.5,38.6z M50.8,48.6c-0.1-0.2,0.2-0.5,0-0.7c-0.3,0.4-0.3,0.4-0.2,0.8C50.7,48.7,50.8,48.6,50.8,48.6
	c0,0.1-0.1,0.3,0,0.4c0.3-0.1,0.4-0.5,0.7-0.6c0,0.3-0.2,0.5-0.2,0.7c-0.2,0.4,0.2,0.2,0.3,0.3c-0.5,0.5-0.9,1-1.2,1.7
	c0.2-0.1,0.4-0.2,0.5-0.2c0.2-0.1,0.3-0.6,0.6-0.4c0.2,0.1-0.1,0.4-0.2,0.6c0,0.3-0.1,0.3,0.3,0.3c-0.2,0.1-0.3,0.3-0.3,0.5
	c0,0.1,0,0.2,0.1,0.2c0,0,0.1,0,0.1,0c0.2-0.1,0.2-0.4,0-0.6c0-0.2,0.1-0.3,0.3-0.2c0.3,0.1,0,0.4,0.2,0.7c0.4,0,0.6,0.2,0.6,0.6
	c0.2,0,0.4-0.1,0.7-0.2c-0.1,0.1-0.2,0.2-0.2,0.2c-0.2,0.3-0.2,0.3,0,0.5c0.3,0.2,0.6,0.2,0.9,0.3c1.3,0.2,2.6-0.1,4-0.2
	c0.7-0.1,1.3-0.2,1.9-0.4c0.4-0.1,0.9-0.3,1.3-0.4c1.3-0.6,2.7-0.8,3.8-1.5c0.2-0.1,0.3-0.2,0.5-0.2c0.3,0,0.6-0.2,0.8-0.4
	c0.8-0.7,1.7-1,2.5-1.7c1.6-0.8,3-1.9,4.4-3.1c0.5-0.4,1.1-0.8,1.4-1.3c0.3-0.5,0.8-0.8,1.2-1.1c0.1-0.1,0.2-0.2,0.4-0.2
	c0.2-0.2,0.6-0.4,0.6-0.8c0-0.4,0.2-0.4,0.4-0.5c0.3-0.1,0.7-0.2,0.9-0.4c0.3-0.3,0.6-0.7,0.8-1c0.2-0.3,0.5-0.7,0.6-1
	c0.3-0.6,0.6-1.3,0.9-2c0.3-0.6,0.4-1.3,0.5-1.9c-0.2,0-0.1,0.2-0.3,0.2c0.1-0.6,0.2-1.2,0.2-1.8c0-0.4,0.1-0.7,0-1
	s-0.2-0.6-0.2-0.9c0-0.1,0-0.2-0.1-0.3c-0.2-0.1-0.2,0.2-0.4,0c0-0.8-0.7-1.2-1.3-1.5c-0.1,0-0.3-0.1-0.4,0
	c-0.3,0.1-0.5,0.1-0.6-0.2c0-0.1-0.2-0.2-0.4-0.1c-0.3,0.1-0.6,0.2-0.8,0.5c-0.1,0.1-0.1,0.2,0,0.3c0.1,0.1,0.2,0.1,0.3,0
	c0.1,0,0.2-0.2,0.2-0.3c0-0.1,0.1-0.1,0.2-0.1c0,0,0.1,0.1,0.1,0.1c0,0.1,0,0.2-0.1,0.2s-0.1,0.1-0.2,0.1c-0.3,0.1-0.6,0.2-0.9,0.4
	c-0.6,0.5-1.2,0.3-1.8,0.4c0.4-0.3,0.8-0.7,1.2-0.8c0.2,0,0.4-0.1,0.5-0.3c0.1-0.1,0.2-0.2,0.1-0.3c-0.1-0.1-0.2-0.1-0.3-0.1
	c-0.2,0-0.4,0.2-0.6,0.3c-0.3,0.2-0.4,0.2-0.6,0c-0.1-0.1-0.2,0-0.2,0c-0.2,0-0.4,0.2-0.5,0.3c-0.3,0.2-0.5,0.5-0.9,0.4
	c0-0.2,0.4-0.2,0.3-0.5c-0.3,0-0.6,0.2-0.7,0.4c-0.1,0.4-0.5,0.5-0.8,0.7c-0.1,0.1-0.3,0.1-0.3,0c-0.1-0.1,0-0.2,0.1-0.3
	c0.1,0,0.1-0.1,0.2-0.2c0,0,0-0.1-0.1-0.2c-0.2,0-0.9,0.4-1,0.5c0,0,0,0.1,0,0.1c0.4,0.3,0,0.3-0.1,0.4c-0.2,0.1-0.4,0.1-0.6,0.1
	c-0.4,0-0.8,0-1.1,0.3c-0.1,0.1-0.2,0.1-0.4,0.2c-0.1,0-0.2,0-0.2,0c0-0.1,0-0.2,0.1-0.2c0.1,0,0.2-0.1,0.4-0.1
	c0.4-0.1,0.8-0.3,1.1-0.7c-0.2-0.1-0.4,0-0.7,0.1c-0.7,0.3-1.3,0.6-2,0.9c-0.9,0.3-1.7,0.8-2.5,1.3c-0.9,0.6-1.9,1.2-2.8,1.8
	c-0.7,0.4-1.2,1.2-1.9,1.6c-0.2,0.1-0.4,0.3-0.6,0.5c-0.1,0.1-0.2,0.2-0.1,0.3c0.4,0.6,0.7,1.2,1.2,1.6c0.2,0.1,0.3,0.1,0.5,0
	c1.1-0.7,2.3-1.4,3.4-2.2c0.2-0.2,0.2-0.3,0.1-0.5c-0.2-0.4-0.6-0.6-0.9-0.9c-0.3-0.3-0.2-0.6,0.2-0.7c0.3-0.1,0.5,0,0.7,0.2
	c0.1,0.2,0.3,0.4,0.4,0.5c0.6,0.7,0.6,0.7,1.3,0.2c1.5-0.9,3-1.7,4.7-2.2c0.3-0.1,0.4-0.3,0.7-0.3c0.5,0,1-0.2,1.5-0.4
	c0.6-0.2,1.1-0.4,1.7-0.6c0,0.3-0.4,0.3-0.3,0.6c0.4,0.1,0.7,0.1,1.1,0.1c0.3,0.7,0.3,0.7,0.8,0.3c0.1-0.1,0.2-0.2,0.3-0.2
	c0.4-0.3,0.9-0.5,1.3-0.7c-0.7,0.5-0.7,0.5-0.8,0.8c0.6-0.3,0.6-0.3,1-0.2c-0.5,0.4-0.5,0.4-1.3,0.4c-0.2,0-0.6,0.3-0.6,0.4
	c0,0.3,0.2,0.1,0.4,0.2c0,0,0,0,0,0c0.1,0.3,0.4,0.6,0.4,0.8c0.1,0.4,0.4,0.7,0.3,1.1c0,0.1,0,0.2,0.1,0.3c0.1,0.1,0.1,0.2,0,0.2
	c-0.2,0.3-0.6,0.3-0.8,0.5l-0.1,0c0-0.5-0.4-0.2-0.7-0.4c0-0.4,0.4-0.6,0.4-0.9c-0.2-0.1-0.3,0.2-0.5,0.2c0,0,0-0.1,0-0.1
	c0.2-0.5-0.1-0.8-0.4-1.1c-0.2-0.2-0.4-0.4-0.6-0.2c-0.4,0.2-0.5,0-0.8-0.2c-0.1-0.1-0.2-0.1-0.3-0.1c-0.6,0-1.1,0-1.7,0.1
	c-0.6,0.1-1.1,0.4-1.7,0.6c-1.4,0.6-2.8,1.3-4,2.1c-0.4,0.2-0.4,0.4-0.1,0.6c0.6,0.6,0.9,1.3,1.5,1.8c0.2,0.1,0.4,0.3,0.3,0.6
	c-0.4,0.1-0.6-0.1-0.8-0.3c-0.5-0.6-1.2-1.1-1.6-1.7c-0.1-0.1-0.2-0.2-0.3-0.3c-0.1-0.1-0.2-0.1-0.2,0c-0.4,0.4-0.9,0.5-1.3,0.8
	c-0.3,0.3-0.6,0.6-0.9,0.6c-0.5,0.1-0.9,0.4-1.3,0.7c-0.3,0.2-0.3,0.3,0,0.6c0.5,0.5,1,1,1.5,1.6c0.4,0.5,0.4,0.5,0,1
	c-0.1,0-0.2,0-0.2-0.1c-0.7-0.8-1.5-1.3-2.2-2.1c-0.2-0.2-0.3-0.2-0.5,0c-0.3,0.3-0.7,0.5-1,0.8c-1.4,1-2.8,2-3.9,3.4
	c-0.3,0.4-0.7,0.8-0.8,1.3c0,0.4-0.2,0.9-0.3,1.3c-0.1,0.4-0.1,0.8,0,1.2c0.1,0.4,0.3,0.7,0.4,1.1c0.2,0.5,0.6,0.8,1,0.8
	c0.6,0.1,1.2,0.2,1.6-0.4c0.2-0.2,0.4-0.4,0.6-0.5c0.2-0.2,0.5-0.3,0.8-0.2c0.3,0.2,0.1,0.5,0.2,0.7c0,0.4-0.1,0.8-0.4,1
	c-0.4,0.3-0.8,0.5-1.3,0.4c-0.5,0-1-0.1-1.5-0.2c-0.9-0.2-1.5-0.7-1.9-1.4c-0.3-0.6-0.4-1.2-0.6-1.8c-0.1-0.5-0.1-0.9,0.1-1.4
	c0.4-0.9,0.7-1.8,1.4-2.5c0.7-0.8,1.4-1.4,2.2-2.1c0.9-0.8,1.7-1.5,2.7-2.1c0.3-0.2,0.3-0.3,0.1-0.6c-0.4-0.4-0.8-0.8-1.2-1.2
	c-0.1-0.1-0.2-0.2-0.4,0c-0.9,0.7-1.8,1.4-2.5,2.3c-0.6,0.8-1.2,1.5-1.8,2.3c0,0-0.1,0.1-0.1,0.1c-0.3-0.3-0.3,0.1-0.4,0.2
	c-0.2,0.4,0,0.8-0.1,1.2c0,0.2-0.1,0.4-0.2,0.6c-0.1,0.3-0.4,0.5-0.2,0.9c0.1,0.1-0.2,0.4-0.2,0.4c-0.2-0.2-0.2-0.1-0.3,0
	c-0.3,0.4-0.6,0.8-0.9,1.2c-0.2,0.2-0.3,0.5-0.2,0.8C51.2,48.2,51,48.4,50.8,48.6z M70.9,48.7c0.1,0.1,0.1,0,0.2,0
	c1-0.6,2.1-1.3,3.1-1.9c0.4-0.2,0.7-0.5,1-0.8c0.9-0.8,1.8-1.7,2.6-2.5c0.2-0.3,0.6-0.4,0.6-0.9c0-0.1,0.1-0.1,0.2-0.1
	c0.1,0,0.2-0.1,0.2-0.2c0.1-0.6,0.6-0.8,0.9-1.2c0.1-0.1,0.3-0.3,0.3-0.5c0-0.3,0.2-0.5,0.3-0.7c0.4-0.7,0.9-1.3,1.3-2.1
	c0.1-0.2,0.3-0.4,0.2-0.6c-0.1-0.4,0-0.6,0.2-0.9c0.2-0.5,0.4-1,0.5-1.5c0.3-1.1,0-2.2-0.4-3.2c-0.2-0.3-0.3-0.6-0.4-1
	s-0.2-0.6-0.6-0.7c-0.4-0.2-0.8-0.4-1.2-0.7c-0.2-0.2-0.5-0.3-0.7-0.4c-0.2-0.1-0.5-0.2-0.6,0c-0.1,0.3,0.2,0.4,0.4,0.4
	c0.6,0.2,1,0.4,1.3,0.9c0,0.1,0.2,0.2,0.3,0.2c0.2,0.1,0.3,0.3,0.4,0.5c0.4,0.6,0.4,1.4,0.8,2c0,0,0,0,0,0.1c0,1.2-0.1,2.4-0.7,3.5
	c-0.3,0.5-0.6,1-0.7,1.7c0.3-0.2,0.3-0.6,0.6-0.8c0,0,0,0.1,0,0.1s0,0.1,0,0.2c-0.6,1.3-1.6,2.2-2.2,3.5c-0.5,0.3-0.7,0.8-1.1,1.2
	c-0.9,0.8-1.9,1.6-2.8,2.5c-0.4,0.3-0.9,0.4-1.1,1c0,0-0.1,0-0.2,0.1c-0.9,0.6-1.7,1.3-2.5,2C71.1,48.4,70.9,48.5,70.9,48.7z
	 M56.2,55.5c0-0.5,0.3-0.6,0.8-0.6c0.2,0,0.3,0,0.4,0c0.5,0,1,0,1.5-0.3c0.1-0.1,0.3-0.1,0.5-0.1c1.1,0,2-0.4,2.9-0.9
	c0.7-0.4,1.3-0.9,2.1-1.2c0.3-0.1,0.5-0.3,0.8-0.4c0,0,0-0.1,0-0.1c-1,0.2-1.8,0.8-2.8,1c-1,0.2-1.8,0.8-2.8,1
	c0-0.2,0.2-0.2,0.1-0.4c0,0-0.1,0-0.2,0c-0.8,0.2-1.6,0.4-2.4,0.6c-0.1,0-0.2,0.1-0.3,0.2c-0.2,0.2-0.4,0.2-0.6,0.3
	c-0.6,0.1-1.2,0-1.9-0.1c-1.3-0.2-2.3-0.6-3.2-1.5c-0.1-0.1-0.2-0.2-0.4-0.2c-0.6,0-0.7-0.5-0.9-0.9c-0.1-0.4-0.4-0.7-0.3-1.1
	c0-0.1-0.1-0.2-0.2-0.4c0,0.1-0.1,0.2-0.1,0.3c-0.1,1.2,0.4,2.2,1.2,3.2c0,0,0.1,0.1,0.2,0.1c0.4,0.1,0.7,0.4,1,0.6
	c0.7,0.4,1.3,0.7,2.1,0.8c0.6,0,1.1-0.2,1.6-0.2c0.2,0,0.5-0.1,0.5,0.3C55.8,55.4,56,55.5,56.2,55.5z M61.5,34.6
	c-0.1,0-0.2,0-0.2,0.1c-0.7,0.4-1.3,0.8-2,1.3c-0.8,0.6-1.6,1.1-2.3,1.8c-0.8,0.7-1.6,1.3-2.4,2.1c-1,0.9-1.9,2-2.7,3.1
	c-0.3,0.4-0.6,0.7-0.7,1.1c0.4-0.4,0.9-0.8,1.3-1.2c1.5-1.7,3-3.3,4.7-4.8c0.6-0.5,1.1-1.1,1.8-1.5C59.9,35.9,60.6,35.2,61.5,34.6z
	 M74.3,49c0-0.1,0-0.2,0-0.2c0-0.2,0-0.3-0.1-0.4c-0.1-0.4-0.3-0.4-0.6-0.2c-0.8,0.6-1.6,1.2-2.5,1.7c-0.1,0.1-0.3,0.2-0.2,0.3
	c0,0.4,0.1,0.7,0.5,1c0.3,0.2,0.5-0.1,0.7-0.2c0.4-0.2,0.5-0.4,0.4-0.9c0-0.1-0.1-0.3-0.1-0.4c0-0.1,0-0.2,0.1-0.2
	c0.1,0,0.2,0,0.2,0.1c0,0.2,0,0.3,0.1,0.4c0,0.2,0.2,0.4,0.4,0.2c0.4-0.2,0.7-0.5,1.1-0.7C74.2,49.3,74.3,49.2,74.3,49z M78,44.8
	c-0.2,0-0.3,0.1-0.4,0.2c-0.6,0.6-1.2,1.2-1.9,1.7c-0.2,0.2-0.2,0.6,0,0.8c0.1,0.1,0.6,0.2,0.7,0.1c0.2-0.2,0.5-0.4,0.8-0.6
	c0.2-0.2,0.2-0.4,0-0.5c-0.1-0.1-0.3-0.2-0.1-0.3c0.2-0.1,0.2,0.1,0.3,0.2c0.1,0.1,0.2,0.2,0.3,0.1c0.3-0.2,0.6-0.5,0.7-0.8
	C78.4,45.1,78.1,45,78,44.8z M60.2,55.6c-0.4-0.4-0.7-0.4-1.1-0.2c-0.2,0.1-0.4,0.1-0.5,0.1c-0.2,0-0.3,0.1-0.3,0.3
	c0,0.2,0.1,0.3,0.2,0.4c0.1,0,0.2,0,0.4,0c1,0,1.9-0.4,2.8-0.8c0.2-0.1,0.2-0.2,0.1-0.4c-0.1-0.2-0.3-0.2-0.5-0.2
	c-0.3,0-0.6,0.2-0.9,0.3C60.1,55.2,60.2,55.4,60.2,55.6z M69.2,52.4c0,0,0-0.1-0.1-0.2c-0.1-0.1-0.2-0.2-0.3-0.3
	c-0.2-0.2-0.1-0.5-0.3-0.5c-0.2,0-0.4,0.2-0.6,0.2c-0.2,0.1-0.3,0.2-0.4,0.2c-0.5,0.3-0.6,0.6-0.2,1.1c0.2,0.2,0.3,0.3,0.6,0.2
	c0.4-0.2,0.8-0.4,1.3-0.6C69.2,52.6,69.2,52.6,69.2,52.4z M69.5,52.1c0.2-0.2,0.3,0.1,0.5,0c0.8-0.2,1.1-0.7,0.7-1.5
	c0-0.1-0.1-0.2-0.1-0.2c-0.1-0.2-0.2-0.2-0.4-0.1c-0.4,0.2-0.7,0.4-1,0.6c-0.3,0.2-0.3,0.4-0.2,0.6C69.1,51.9,69.2,52.2,69.5,52.1z
	 M49,51c0-0.3,0-0.6,0-0.9c0.1-0.9,0.3-1.8,0.7-2.6s0.8-1.6,1.2-2.4c0-0.1,0.1-0.2,0-0.2c-0.2,0.1-0.3,0.3-0.4,0.5
	c-0.4,0.8-0.8,1.5-1.1,2.3c-0.2,0.6-0.4,1.2-0.6,1.8C48.8,50,48.7,50.5,49,51z M67.3,31.2c-0.6,0-1,0.4-1.4,0.6
	c-1.3,0.7-2.5,1.4-3.6,2.2c0.2,0.1,0.4,0,0.4-0.1c1.3-0.8,2.7-1.5,4-2.2C66.9,31.7,67.1,31.5,67.3,31.2z M66,54
	c0.3-0.2,0.7-0.2,1-0.5c0.1,0,0.1-0.2,0-0.2c-0.1-0.3-0.2-0.6-0.4-0.8c-0.2-0.1-0.4,0.2-0.6,0.2c-0.1,0-0.2,0.1-0.3,0.1
	c-0.2,0.1-0.3,0.2-0.2,0.5C65.6,53.7,65.7,53.9,66,54z M65.1,53.3c-0.2,0-0.3,0.2-0.5,0.2c-0.2,0.1-0.4,0.2-0.6,0.3
	c-0.2,0.1-0.4,0.1-0.4,0.3c0,0.3,0.2,0.4,0.4,0.6c0.2,0.1,1-0.2,1.2-0.4c0.2-0.3,0-0.5-0.1-0.8C65.2,53.4,65.1,53.4,65.1,53.3z
	 M74.6,48.9c1-0.5,1.1-0.8,0.6-1.6c0,0,0-0.1,0-0.1c0-0.1-0.1-0.1-0.2-0.1c-0.3,0.1-0.6,0.3-0.8,0.6c-0.1,0,0,0.2,0,0.2
	C74.5,48.1,74.4,48.5,74.6,48.9z M83.6,37c0.8-0.5,0.8-1.4,0-2.5c-0.2,0.1-0.1,0.2-0.1,0.4c-0.1,0.4,0,0.8-0.2,1.2
	C83.1,36.4,83.2,36.7,83.6,37z M62.7,55.2c0.2-0.1,0.4-0.1,0.6-0.2c0.4-0.2,0.4-0.2,0.2-0.6c-0.1-0.2-0.2-0.4-0.5-0.2
	c-0.2,0.1-0.4,0.2-0.7,0.3c-0.2,0-0.4,0.1-0.4,0.3c0,0.2,0.2,0.3,0.4,0.3C62.4,55.1,62.5,55.2,62.7,55.2z M79.7,43.9
	c0.8-0.5,1.1-1.4,0.7-2.1c-0.2,0.4-0.4,0.7-0.6,1C79.5,43.3,79.5,43.6,79.7,43.9z M78.6,45.1c0.8-0.7,0.9-0.9,0.6-1.5
	c-0.2,0.2-0.4,0.3-0.6,0.5c-0.5,0.4-0.5,0.4-0.2,0.9C78.6,45,78.6,45,78.6,45.1z M80.9,42.2c0.2-0.3,0.3-0.5,0.5-0.8
	c0.2-0.2,0.1-0.4,0-0.7c-0.2-0.3-0.2-0.2-0.4-0.1C80.6,41.1,80.6,41.6,80.9,42.2z M67.4,51.7c0.6-0.3,1.1-0.6,1.7-0.9
	c0.1,0,0.2-0.1,0.2-0.2c-0.1-0.2-0.2-0.1-0.3,0c-0.5,0.2-0.9,0.5-1.4,0.7C67.4,51.3,67.3,51.4,67.4,51.7z M57.4,56.6
	c0.2,0,0.4,0,0.6-0.1c0.1,0,0.2,0,0.3-0.2c0-0.1-0.1-0.2-0.2-0.3c-0.4-0.2-0.6,0-0.9,0.1c-0.1,0-0.2,0.1-0.2,0.2
	c0,0.1,0.1,0.2,0.2,0.3C57.1,56.6,57.2,56.6,57.4,56.6z M53.6,55.9c0,0.4,0.1,0.6,0.4,0.7c0.3,0,0.6,0,0.8,0c0.2,0,0.2-0.2,0.1-0.3
	c0-0.1-0.2-0.1-0.2-0.2C54.3,56.1,54,56.1,53.6,55.9z M49.9,45.9c-0.8,0.8-0.9,1.8-1.1,2.8C49.1,47.9,49.5,46.9,49.9,45.9z
	 M53.3,56.4c-0.1-0.6-0.3-0.7-1-0.4C52.5,56.4,52.5,56.4,53.3,56.4z M77,42.9c0.5-0.3,1-0.5,1.2-1.2C77.6,42,77.4,42.5,77,42.9z
	 M52.6,44.7C52.6,44.6,52.6,44.6,52.6,44.7L52.6,44.7c-0.4,0.2-0.6,0.5-0.7,0.8c0,0.1,0,0.2,0.2,0.2C52.3,45.4,52.5,45,52.6,44.7z
	 M55.8,56.6c0.1,0,0.2,0,0.4,0c0.1,0,0.2,0,0.2-0.2c0-0.1-0.1-0.2-0.2-0.3c-0.2,0-0.5,0-0.7,0c-0.2,0-0.1,0.2,0,0.3
	C55.5,56.6,55.6,56.6,55.8,56.6z M49,51.5c-0.4,0.3-0.3,0.7,0.3,1.1C49.2,52.2,49.2,51.8,49,51.5z M76.5,28.7c0.2,0,0.4,0,0.4-0.3
	c0-0.2-0.1-0.2-0.2-0.2c-0.3,0-0.5,0.1-0.5,0.3C76.3,28.6,76.4,28.7,76.5,28.7z M81.3,34.7c0-0.6,0.2-1.2-0.1-1.8
	C81.3,33.5,81.2,34.1,81.3,34.7z M73.7,29.4c-0.4-0.1-0.8,0.1-1,0.4C73,29.8,73.4,29.8,73.7,29.4z M50.7,49.7
	c-0.4,0.4-0.4,0.4-0.4,0.9C50.4,50.3,50.6,50.1,50.7,49.7z M83.3,38.4c-0.3,0.4-0.3,0.4-0.2,0.9C83.2,39,83.3,38.7,83.3,38.4z
	 M50.2,48.7c-0.3,0.4-0.3,0.4-0.1,0.8C50.2,49.2,50.3,49,50.2,48.7z M59.2,37.8c0-0.1,0-0.2-0.1-0.2c-0.2,0-0.2,0.1-0.2,0.3
	c0,0.1,0,0.1,0.1,0.1C59.2,38,59.2,37.9,59.2,37.8z M78.2,29.2c0.2,0,0.3,0,0.4-0.2c0,0,0-0.1-0.1-0.1c-0.2,0-0.3,0-0.4,0.2
	C78.1,29.1,78.1,29.2,78.2,29.2z M74.6,44.6c-0.4,0.2-0.4,0.2-0.4,0.4C74.4,45,74.6,44.9,74.6,44.6z M66.2,51.4
	c-0.2,0-0.4,0.1-0.6,0.3C65.9,51.7,66.1,51.6,66.2,51.4z M53.3,53.8c0,0.2,0.2,0.3,0.3,0.3c0,0,0.1-0.1,0.1-0.2
	C53.6,53.8,53.5,53.7,53.3,53.8z M78.8,43.1c0.1,0,0.2-0.1,0.2-0.2c0-0.1,0-0.2-0.2-0.1c-0.1,0-0.2,0.1-0.1,0.2
	C78.7,43.1,78.7,43.1,78.8,43.1z M70.2,49c-0.1,0-0.2,0-0.2,0.1c0,0,0,0.1,0,0.1C70.2,49.2,70.2,49.2,70.2,49
	C70.3,49.1,70.2,49.1,70.2,49z M72.1,29.8c0,0-0.1,0.1-0.1,0.1c0,0.1,0.1,0.1,0.2,0.1c0,0,0.1,0,0.1-0.1
	C72.3,29.8,72.2,29.8,72.1,29.8z"/>
<path class="st0" d="M78.6,39.9c-0.2,0.4-0.6,0.4-0.9,0.6c-0.2,0.1-0.4,0.2-0.4,0.4c0,0.2-0.2,0.3-0.4,0.3c-0.4,0.2-0.8,0.4-1,0.8
	c-0.2,0.3-0.5,0.4-0.8,0.4c0-0.1,0-0.1,0-0.1c0.5-0.4,0.8-0.8,0.9-1.4c0-0.2,0.2-0.3,0.3-0.3C77,40.4,77.7,40,78.6,39.9
	C78.5,39.8,78.5,39.8,78.6,39.9z"/>
<path class="st0" d="M76,32c-0.3,0.2-0.6,0.5-1,0.4c-0.2,0-0.4,0.2-0.7,0.3c-0.2,0.1-0.4,0.1-0.6,0.2c0.1-0.3,0.3-0.3,0.4-0.4
	c0.3-0.2,0.6-0.4,1-0.6C75.3,31.7,75.6,31.6,76,32z"/>
<path class="st0" d="M74,41.6c0,0.2,0,0.5,0.4,0.3c0.2-0.1,0.3-0.1,0.6-0.2c0,0.2-0.2,0.3-0.4,0.4c-0.1,0.2-0.4,0.2,0,0.4
	c0.1,0.1-0.1,0.4-0.4,0.4c-0.2,0-0.4,0-0.6,0c0-0.2,0.3-0.3,0.4-0.4c0.1-0.1,0.2-0.1,0.1-0.2c-0.1-0.2-0.2-0.1-0.3-0.1
	c-0.1,0-0.2,0.1-0.4,0C73.6,41.9,73.8,41.8,74,41.6C74.1,41.6,74,41.6,74,41.6z"/>
<path class="st0" d="M72.5,32c-0.5,0.6-1.1,0.6-1.8,0.6c0.3-0.3,0.6-0.5,0.9-0.6C71.9,32.2,72.2,31.8,72.5,32z"/>
<path class="st0" d="M75.3,38.2c0.1-0.4,0.4-0.6,1.4-0.8C76.4,37.7,76.3,37.7,75.3,38.2z"/>
<path class="st0" d="M72.9,41.2c0.1-0.2,0.2-0.3,0.4-0.5c0.1-0.1,0.3-0.1,0.3-0.4c0-0.2,0.2-0.3,0.6-0.2
	C73.9,40.6,73.6,41.1,72.9,41.2L72.9,41.2z"/>
<path class="st0" d="M76.4,35.4c0.2-0.4,0.6-0.5,1-0.7C77.2,35.1,77.2,35.1,76.4,35.4z"/>
<path class="st0" d="M74.6,39.9c0.3-0.3,0.5-0.4,0.7-0.5c0,0,0.1,0,0.1,0c0.1,0.1,0,0.1,0,0.2C75.2,39.8,75,39.9,74.6,39.9z"/>
<path class="st0" d="M76.9,34c0.2-0.3,0.4-0.4,0.6-0.5c0.1,0,0.1,0,0.2,0c0.1,0.1,0,0.2-0.1,0.2C77.4,33.9,77.3,34,76.9,34z"/>
<path class="st0" d="M77.4,32.9c-0.2,0.4-0.5,0.4-0.9,0.5C76.7,33,77.2,33.1,77.4,32.9z"/>
<path class="st0" d="M76.5,38.4c0,0.1,0,0.1,0,0.1c-0.2,0.1-0.3,0.4-0.6,0.3c0,0,0-0.1,0-0.1C76,38.5,76.3,38.5,76.5,38.4z"/>
<path class="st0" d="M72.9,43.4c0,0-0.1,0-0.1-0.1c-0.1-0.1,0-0.2,0-0.2c0.1-0.1,0.2-0.1,0.3-0.2c0,0,0.1,0,0.2,0
	c0.1,0.1,0,0.2,0,0.2C73.1,43.3,73,43.4,72.9,43.4z"/>
<path class="st0" d="M72.9,41.2c-0.2,0.1-0.4,0.3-0.6,0.4h0C72.4,41.1,72.5,41.1,72.9,41.2L72.9,41.2z"/>
<path class="st0" d="M76.4,36.3c0.1-0.3,0.4-0.3,0.6-0.3C76.9,36.3,76.6,36.3,76.4,36.3z"/>
<path class="st0" d="M74.6,38.8c0,0.4-0.2,0.4-0.5,0.4C74.2,38.9,74.3,38.8,74.6,38.8z"/>
<path class="st0" d="M70.5,32.7c-0.1,0.2-0.3,0.3-0.6,0.1C70.1,32.7,70.3,32.6,70.5,32.7z"/>
<path class="st0" d="M75.9,34.6c0.1-0.2,0.3-0.2,0.4-0.2c0,0,0,0.1,0,0.1C76.2,34.6,76.1,34.7,75.9,34.6z"/>
<path class="st0" d="M66.3,33.3c0.1-0.1,0.2-0.1,0.3-0.2c0.1,0,0.1,0.1,0.1,0.1C66.6,33.2,66.5,33.3,66.3,33.3
	C66.3,33.4,66.3,33.3,66.3,33.3z"/>
<path class="st0" d="M72.8,40.3c0,0-0.1,0-0.1-0.1c0-0.1,0.1-0.1,0.1-0.1c0.1,0,0.1,0,0.1,0.1C72.9,40.3,72.9,40.3,72.8,40.3z"/>
<path class="st0" d="M81.4,35.9c0.2,0.2,0.2,0.5,0,0.8C81.2,36.4,81.3,36.1,81.4,35.9z"/>
</svg>
