<?xml version="1.0" encoding="utf-8"?>
<!-- Generator: Adobe Illustrator 24.3.0, SVG Export Plug-In . SVG Version: 6.00 Build 0)  -->
<svg version="1.1" id="Calque_1" xmlns="http://www.w3.org/2000/svg" xmlns:xlink="http://www.w3.org/1999/xlink" x="0px" y="0px"
	 viewBox="0 0 67 95" style="enable-background:new 0 0 67 95;" xml:space="preserve">
<style type="text/css">
	.st0{fill:#FFFFFF;}
</style>
<path class="st0" d="M40.4,87.7l-1.6-1.4C38.8,87.2,39.6,87.7,40.4,87.7C40.4,87.7,40.4,87.7,40.4,87.7z"/>
<path class="st0" d="M20.6,6.5c0-0.6,0-1.2,0-1.8c0-0.8-0.3-1-1-0.8c-0.6,0.1-1,0.5-1.3,1c-0.6,1-0.7,3,0.4,3.8
	c0.4,0.3,0.9,0.5,1.4,0.5C20.5,9,20.8,8.6,20.7,8V7.9C20.7,7.5,20.6,6.5,20.6,6.5z"/>
<path class="st0" d="M29.1,39.4c0,0.4,0.1,0.9,0.1,1.2l-0.1,1.7h0.3l-0.1-4.8h-0.2C29,38.2,29,38.8,29.1,39.4z"/>
<path class="st0" d="M21.6,16.5c0.6,0.1,0.8-0.1,0.7-0.7c-0.3-1-0.5-2.1-0.8-3c-0.2-0.7-0.5-1.2-0.7-1.9c0.1,1.5,0.2,3,0.4,4.6
	C21.4,15.8,21.5,16.2,21.6,16.5z"/>
<path class="st0" d="M21.9,9c0,0.1,0.1,0.3,0.2,0.3c0.1,0,0.3-0.1,0.3-0.2c0.1-0.2,0.2-0.3,0.2-0.5c0-0.6,0-1.1,0-1.6
	c-0.1-1.1-0.2-2.3-0.3-3.6c-0.9,0.4-1,0.8-0.9,1.4C21.7,6.2,21.8,7.6,21.9,9z"/>
<path class="st0" d="M23.5,7.7c0,0.4,0.1,0.9,0.4,1c1.2,0.5,2.6,0.2,3.5-0.7c0.2-0.2,0.4-0.3,0.6-0.4c-0.5-1.2-0.7-2.7-0.6-4
	c0.1-0.3-0.2-0.7-0.5-0.7c-1.1-0.4-2.5-0.1-3.4,0.7c-0.3,0.2-0.5,0.6-0.3,1C23.4,5.6,23.4,6.7,23.5,7.7z"/>
<path class="st0" d="M45.6,5.3c0.1-0.7,0-1-0.9-1.4c-0.1,1.3-0.3,2.5-0.4,3.6c0,0.6-0.1,1,0,1.6c0,0.2,0.1,0.4,0.2,0.5
	c0.1,0.1,0.2,0.2,0.3,0.2c0,0,0.2-0.2,0.2-0.3C45.2,8.1,45.4,6.7,45.6,5.3z"/>
<path class="st0" d="M47.6,4.5c-0.7-0.2-1,0-1,0.8c0,0.6-0.2,1.8-0.2,1.8c0,0.5,0,1-0.1,1.5c-0.2,0.5,0.1,1,0.7,1.2H47
	c0.5,0.1,1-0.1,1.4-0.4c1-0.8,1-2.9,0.5-3.8C48.6,4.9,48.2,4.6,47.6,4.5z"/>
<path class="st0" d="M44.5,16.3c-0.2,0.6,0.1,0.8,0.7,0.7c0.1-0.3,0.3-0.7,0.4-1c0.3-1.5,0.5-3,0.6-4.6c-0.2,0.6-0.5,1.2-0.7,1.8
	C45,14.3,44.8,15.3,44.5,16.3z"/>
<path class="st0" d="M43.5,4.1c-1-0.8-2.2-1-3.3-0.8c-0.3,0.1-0.6,0.4-0.5,0.7c0.1,1.3-0.2,2.8-0.7,4c0.2,0.1,0.4,0.3,0.6,0.4
	c1,1,2.3,1.2,3.5,0.8c0.2-0.1,0.3-0.7,0.4-1c0.1-1,0.2-2.1,0.4-3.1C43.9,4.7,43.8,4.3,43.5,4.1z"/>
<path class="st0" d="M36.5,73.1c0-0.5-0.1-1-0.3-1.5c0-0.1-0.2-0.2-0.3-0.4l-0.2,0.1c0,0.4,0,0.8,0.1,1.2c0.1,0.7,0.3,1.2,0.4,1.9
	c0.1,1,0.2,1.9,0.4,2.9c0,0.1,0.2,0.3,0.3,0.4c0.1-0.1,0.2-0.3,0.3-0.5c0-0.2,0-0.3-0.1-0.5C36.7,75.6,36.5,74.3,36.5,73.1z"/>
<path class="st0" d="M49.6,4.4c-0.5-0.7-1.1-1-2-1c-0.6,0-1.1-0.1-1.7-0.3c-0.4,0-0.7-0.1-1-0.1c-0.4,0-0.8-0.1-1-0.2
	C42.6,2.2,41.3,2,40,2.1c-0.1,0-0.2,0.1-0.4,0.1c-0.4,0-0.9-0.1-1,0.1c-0.4,0.5-0.8,1-1,1.6c-0.5,1.1-0.5,2.4-0.1,3.6
	C38,8.7,38.8,9.6,40,10c1,0.5,2.3,0.7,3.4,0.4c0.5-0.1,1,0.4,1.6,0.7c0,0,0,0.3,0,0.5c-0.5,1.6-1,3.3-1.4,4.9
	c-0.2,0.7-0.1,1.3,0.4,1.8c0,0.2,0,0.3,0,0.5c-0.2,2.3-1.3,4.3-1.8,6.5c-0.4,1.6-0.9,3.1-0.3,4.8c0.6,1.9,1.3,3.8,2.2,5.5
	c1,1.9,1.3,4.2,0.8,6.3c-0.2,0.7-0.4,1.4-0.9,2c-0.7,1-1.4,2-2.1,3c-0.7,1-1.3,1.9-2,2.8c-1,1-1.8,2.2-2.4,3.5
	c-0.1,0.3-0.3,0.6-0.5,0.8c-0.6,1.7-0.8,3.4-0.8,5.2c0.3,2.1,0.4,4.3,0.5,6.4c0,0.4-0.1,0.9-0.2,1.2l-0.2-0.1
	c-0.1-0.4-0.2-0.7-0.2-1c0-0.6,0.1-1.1,0-1.8c-0.1-1-0.3-1.8-0.5-2.8c-0.2-1.1-0.5-2.3-0.8-3.4c-0.4-1-0.8-1.9-1.2-2.9
	c-1-2.1-1.9-4.2-2.9-6.4c-0.3-0.5-0.5-1-0.6-1.6c-0.1-1.2-0.2-2.4-0.3-3.6c-0.1-1.7-0.1-3.5-0.2-5.2c0-0.9-0.1-1.8-0.3-2.7
	c-0.3-1.2-0.8-2.5-1.2-3.7c-0.5-1.8-1.4-3.5-2.8-4.8c-0.7-0.6-1.1-1.1-1.5-1.9c-0.9-1.3-1.3-2.9-1.5-4.4c0-0.8,0-1.5,0.1-2.3l0,0
	l0,0c0-0.1,0.1-0.2,0.2-0.2c0.5-0.5,0.8-1.1,0.5-1.8c-0.4-1.6-0.9-3.3-1.2-4.9c0-0.2-0.1-0.4,0-0.5c0.6-0.3,1.1-0.8,1.6-0.6
	c1.1,0.3,2.4,0.2,3.4-0.3c1.1-0.5,2-1.3,2.4-2.5c0.5-1.1,0.5-2.4,0-3.6c-0.2-0.6-0.6-1.1-1-1.6c-0.2-0.2-0.7-0.1-1-0.1
	c-0.1,0-0.2-0.1-0.4-0.1c-1.3-0.2-2.6,0-3.8,0.6c-0.4,0.1-0.7,0.2-1,0.2c-0.4,0-0.7,0-1,0.1c-0.6,0.1-1.1,0.2-1.7,0.2
	c-0.8,0-1.5,0.3-2,1c-0.6,1-0.9,2.2-0.9,3.4c-0.1,1.3,0.8,2.6,2,3c0.2,0.1,0.4,0,0.5,0.1c0.2,0.1,0.5,0.3,0.6,0.5
	c0.2,1,0.4,2.2,0.6,3.2c0.2,1.1,0.4,2.3,0.6,3.4c0,0.3,0.4,0.5,0.4,0.7v0.1l0,0c0.1,1,0.1,1.8,0.1,2.8c-0.1,1.5,0.4,3,1.2,4.4
	c0.8,1,1.6,2,2.5,2.9c1.8,2,2.9,4.6,3,7.2c0.3,1.5,0.4,3.1,0.4,4.7c-0.1,1.6,0.3,3.3,0.4,4.9c0.1,1.7,0.6,3.4,1.3,5
	c1,2.7,2.5,5.1,3.7,7.8c0.7,1.6,1,3.4,1,5.1c0,1-0.2,2-0.1,3c0.1,1.1,0.3,2.3,0.5,3.5c-0.8,0.2-0.8,0.9-0.7,1.5
	c0.4,2.4,0.9,4.9,1.2,7.2c0.2,0.9,0.2,0.9,1.1,0.8c0,1,0.1,1.9,0.1,2.9c-0.1,1.6,0.3,3.1,1.1,4.6c0.5,1,1.3,1.6,2.3,1.8
	c0.1,0,0.3,0.1,0.4,0.2c0.7,0.4,1.3,0.8,2,1c0.9,0.3,1.6,0.9,2,1.6c0.4,0.6,0.7,1.2,1,1.9c0.1-0.2,0.3-0.3,0.2-0.4
	c-0.3-0.9-0.7-1.7-1-2.6c-0.8-1.3-2.4-1.5-3.4-2.4c-0.9-0.8-2-1.2-2.4-2.4c-0.5-1.4-0.9-3-1.1-4.5c-0.1-0.7,0-1.3,0.1-2
	c0.3-1,0.2-2-0.2-2.9c-0.1-0.2-0.2-0.4-0.2-0.7c-0.2-1.3-0.4-2.8-0.6-4.1c-0.2-0.6-0.3-1.1-0.3-1.8c0.5-1.4,0.8-2.9,0.9-4.3
	c0-1.4,0-3,0-4.4c0-0.9-0.2-1.6-0.2-2.5c0-0.6,0.3-1.1,0.2-1.6c-0.1-0.8,0-1.6,0.4-2.4c0.9-2,2.1-3.8,3.6-5.3c0.8-0.8,1.4-1.5,2-2.4
	c1-1.2,1.7-2.7,2.2-4.2c0.3-1,0.5-1.9,0.5-3c-0.2-2.8-1.1-5.4-2.8-7.7c-1.1-1.6-1.4-3.6-0.8-5.5c0.9-2.4,1.6-4.9,2.5-7.3
	c0-0.1,0.1-0.3,0.1-0.4c0.1,0,0.1,0,0.1-0.1l0,0l0,0l0,0c0.1,0,0.2-0.1,0.2-0.2C46,18.3,46,18.1,46,18c0-0.1,0-0.1,0-0.2l0,0
	c0.2-1.1,0.4-2.3,0.7-3.4c0.2-1,0.4-2.2,0.7-3.2c0-0.2,0.4-0.3,0.6-0.4c0.2-0.1,0.4,0,0.5-0.1c1.2-0.5,2.1-1.6,2-3
	C50.3,6.7,50.1,5.5,49.6,4.4z M23.6,3.6c1-0.8,2.2-1,3.4-0.7c0.3,0.1,0.6,0.4,0.5,0.7c-0.1,1.3,0.1,2.8,0.6,4
	c-0.2,0.1-0.4,0.2-0.6,0.4c-1,0.9-2.4,1.1-3.5,0.7c-0.2-0.1-0.3-0.7-0.4-1c-0.1-1-0.1-2.1-0.3-3.1C23.1,4.3,23.3,3.9,23.6,3.6z
	 M22.3,3.4c0.1,1.3,0.2,2.5,0.3,3.6c0,0.6,0,1,0,1.6c0,0.2-0.1,0.4-0.2,0.5s-0.2,0.2-0.3,0.2c0,0-0.2-0.2-0.2-0.3
	c-0.2-1.4-0.3-2.9-0.5-4.3C21.3,4.1,21.4,3.7,22.3,3.4z M20,9.2c-0.5,0-1-0.1-1.4-0.5c-1-0.9-0.9-3-0.4-3.8c0.3-0.5,0.8-0.9,1.3-1
	c0.7-0.2,1,0.1,1,0.8c0,0.6,0,1.2,0,1.8c0,0,0.1,1,0.1,1.5C20.8,8.5,20.6,9,20,9.2L20,9.2z M20.9,10.8c0.2,0.7,0.5,1.2,0.7,1.9
	c0.3,1,0.5,2.1,0.8,3c0.1,0.6-0.1,0.8-0.7,0.7c-0.1-0.3-0.2-0.7-0.3-1C21.1,14,20.9,12.4,20.9,10.8z M29.3,42.3H29l0.1-1.7
	c0-0.4-0.1-0.9-0.1-1.2c0-0.6,0-1.1,0-1.7h0.2L29.3,42.3z M38.7,86.3l1.6,1.4C39.6,87.8,38.8,87.3,38.7,86.3L38.7,86.3z M37.1,76.8
	c0.1,0.2,0.1,0.3,0.1,0.5c-0.1,0.2-0.2,0.3-0.3,0.5c-0.1-0.1-0.3-0.3-0.3-0.4c-0.1-1-0.2-1.9-0.4-2.9c-0.1-0.7-0.3-1.2-0.4-1.9
	c-0.1-0.4-0.1-0.8-0.1-1.2l0.2-0.1c0.1,0.1,0.2,0.2,0.3,0.4c0.2,0.5,0.3,1,0.3,1.5C36.5,74.3,36.7,75.7,37.1,76.8z M43.8,5
	c-0.2,1-0.2,2.1-0.4,3.1c0,0.4-0.2,0.9-0.4,1c-1.2,0.5-2.6,0.2-3.5-0.8c-0.2-0.2-0.4-0.3-0.6-0.4c0.6-1.2,0.8-2.6,0.7-4
	c0-0.3,0.2-0.7,0.5-0.7c1.1-0.3,2.5,0,3.3,0.8C43.8,4.3,43.9,4.7,43.8,5z M44.8,9.8c-0.1,0-0.3-0.1-0.3-0.2
	c-0.1-0.2-0.2-0.3-0.2-0.5c0-0.6,0-1.1,0-1.6c0.1-1.1,0.2-2.3,0.4-3.6c0.9,0.4,1,0.8,0.9,1.4c-0.3,1.4-0.4,2.9-0.6,4.3
	C45,9.6,44.9,9.8,44.8,9.8z M45.5,16c-0.1,0.4-0.2,0.7-0.4,1c-0.6,0.1-0.8-0.1-0.7-0.7c0.3-1,0.5-2.1,0.9-3c0.2-0.7,0.5-1.2,0.7-1.8
	C45.9,12.9,45.7,14.5,45.5,16L45.5,16z M48.3,9.3c-0.4,0.3-1,0.5-1.4,0.4S46.1,9,46.2,8.6V8.5c0.1-0.5,0.1-1,0.1-1.5
	c0,0,0.1-1.1,0.2-1.8c0.1-0.8,0.4-1,1-0.8c0.6,0.1,1,0.5,1.2,1C49.4,6.5,49.4,8.6,48.3,9.3z"/>
</svg>
