<?xml version="1.0" encoding="utf-8"?>
<!-- Generator: Adobe Illustrator 24.3.0, SVG Export Plug-In . SVG Version: 6.00 Build 0)  -->
<svg version="1.1" id="Calque_1" xmlns="http://www.w3.org/2000/svg" xmlns:xlink="http://www.w3.org/1999/xlink" x="0px" y="0px"
	 viewBox="0 0 67.4 95" style="enable-background:new 0 0 67.4 95;" xml:space="preserve">
<style type="text/css">
	.st0{fill:#FFFFFF;}
</style>
<path class="st0" d="M45.2,72.5c0.9,1.6,1.8,3,2.6,4.5c1.9,3.3,3.9,6.6,5.8,9.9c0.6,1.1-0.4,3.4-1.6,3.4c-0.7-0.1-1.4-0.6-1.8-1.2
	c-1.3-1.8-2.6-3.8-3.8-5.8c-1.4-2.2-2.7-4.4-4.1-6.7c-0.3-0.5-0.7-0.9-1.1-1.3c0.3,2.1,0.6,3.8,0.9,5.6c0.7,4.1,1.4,8.1,2,12.2
	c0,0.2-0.1,0.6-0.2,0.7c-0.3,0.1-0.6,0.1-0.9-0.1c-0.8-0.6-1.4-1.3-1.9-2.1c-0.7-1.8-1.4-3.7-1.9-5.6c-0.5-1.7-0.9-3.4-1.5-5
	c-0.6-1.7-1.2-3.3-1.9-5.1c-2.6,0.4-5.1,1-7.7,1.2c-2.3,0.1-4.6,0.1-6.9-0.1c-2-0.1-4.1-0.4-6.1-0.7c-2.5-0.2-4.9-0.8-7-2
	c-1.2-0.7-2.1-1.7-2.8-2.8C4,69.3,2.9,67,1.9,64.6c-0.6-1.7-0.5-3.5,0.1-5.1c0.5-2,1.6-3.9,3.2-5.3c2.5-2.1,5.3-3.8,8.3-5.2
	c3.3-1.4,2.8-0.9,2-4.1c-0.6-2.4-1.3-4.8-1.8-7.2c-0.3-1.4-0.2-2.9,0.5-4.1c0.2-0.4,0.2-0.8,0-1.2c-1.4-2.8-2.8-5.6-4.2-8.4
	c-0.2-0.4-0.4-0.8-0.3-1.3c0.4-1.7-0.8-2.4-1.8-3.4c-0.8-0.8-1.5-1.7-2-2.7c-1.2-2.5-2.2-5.1-3.3-7.7C2.2,7.7,1.8,6.5,1.4,5.3
	c0-0.3,0-0.7,0.1-1c0.3,0.1,0.8,0,1,0.2C4.3,6.3,6.2,8.1,7.9,10s2.3,4.4,3.1,6.7c0.2,0.7,0.5,1.4,0.7,2.1c0.1,0.4,0.1,0.7,0.1,1.1
	c1-0.1,1.6,0.8,2.2,1.6c1.4,1.7,2.7,3.4,3.9,5.2c0.9,1.4,1.7,2.8,2.6,4.2c0.4,0.6,0.7,1.3,1,1.9l0.3-0.1c-0.4-1.2-0.7-2.4-1.1-3.6
	c-0.7-2-1.1-4.2-0.9-6.4c0.1-0.9-0.1-1.2-1.1-1.5c-2.1-0.6-3.1-2.4-3.9-4.3c-1-3-1.5-6.1-1.5-9.3c0-2.1-0.3-4.2-0.5-6.3
	c-0.1-0.8,0.3-0.9,0.9-0.7c1.3,0.5,2.6,1,3.9,1.6c2.9,1.2,5.1,3.6,6.1,6.5c0.6,1.4,0.9,2.9,1.1,4.4c0.3,2.3-0.6,4.6-2.3,6.1
	c-0.1,0.1-0.2,0.2-0.2,0.3c0,0.1-0.1,0.1-0.1,0.2c2,2,3.3,4.5,3.9,7.2c0.3,1.4,0.6,0.9,1.4,0.8c1.9-0.2,3.8-0.2,5.7-0.2
	c2.5,0,5,0.1,7.5,0.4c2.1,0.3,4.1,0.8,6.1,1.4c2.7,0.9,5.4,1.4,7.9,3c2.5,1.6,4.9,3.4,6.9,5.5c2.2,2.2,3.5,5.1,3.6,8.2
	c0.1,4.6-0.7,9.1-4.1,12.7c-1.7,1.8-3.1,4-4.9,5.8c-2.2,2.3-4.7,4.2-7.5,5.6C47.7,71,46.6,71.8,45.2,72.5z M17.6,37.1l-0.5,0.2
	c-0.1,0.4-0.1,0.9,0,1.3c0.5,1.6,1,3.1,1.6,4.6c0.4,1.1,0.9,2.2,0.2,3.2c-0.8,1.1-1.9,2.1-3,2.9c-2.2,1.4-4.7,2.4-6.9,3.8
	c-2.6,1.6-4.8,3.5-5.7,6.8c-0.9,2.9-0.1,6.1,2.1,8.2c0.4,0.4,0.9,0.7,1.4,0.9c1.3,0.9,2.7,1.8,4.1,2.5c1.8,0.7,3.6,1.2,5.4,1.6
	c0.6,0.2,1.2,0.4,1.8,0.4c3.2,0.1,6.4,0.2,9.5,0.1c2.3,0,4.6-0.2,6.9-0.6c2.8-0.6,5.6-1.5,8.3-2.3c1-0.2,2-0.5,3-0.9
	c2.4-1.3,4.9-2.6,7.2-4.1c1.3-0.8,6.4-6.4,7.9-8c3.8-4.1,4.6-13.3,0.9-17.7c-1.5-1.7-3-3.3-4.8-4.8c-1.1-0.9-7.3-3.9-9.2-4.5
	c-2-0.7-4.1-1.3-6.3-1.6c-3-0.4-6.1-0.6-9.1-0.6c-2-0.2-4,0.1-5.9,0.8c0.4,1.9,0.8,3.7,1.3,5.5c0.6,2.2,1.4,4.4,2,6.6
	c0.2,0.7,0.7,1.3,1.4,1.5c1,0.5,2.3,1,2.9,1.8c2.3,3.6,0.7,7.4-3.4,8.7c-1.6,0.5-3.1-0.1-4.7-0.5c-1.7-0.4-3-1.7-3.4-3.4
	c-0.6-1.4,0-3.1,1.3-3.9C21.7,43,19.6,40.1,17.6,37.1z M31.8,52c-0.2-0.4-0.4-0.9-0.6-1.3c-0.4-1.4-0.6-2.9-1-4.3
	c-0.7-2.4-1.6-4.8-2.3-7.2c-0.8-2.7-1.4-5.5-2.2-8.3c-0.1-0.4-0.5-1-0.7-0.9c-0.9,0.2-2.1-0.2-2.5,0.9c-0.1,0.6,0,1.3,0.3,1.8
	c1.8,4.4,3.2,9,4.5,13.6c0.5,1.9,1.1,3.9,1.8,5.7c0.2,0.4,0.5,0.6,0.9,0.7C30.7,52.5,31.2,52.3,31.8,52z M26.2,47.8l0.3-0.2
	c-1.3-6.9-5-12.7-8.5-18.5c-1.3,0.5-2.4,1-3.6,1.5c0.8,1.3,1.5,2.6,2.4,3.9c2.2,3.1,4.5,6.2,6.8,9.3c0.4,0.6,1,1,1.4,1.6
	C25.5,46.2,25.8,47,26.2,47.8z M6.3,70.9c1.1,1.7,2.7,3,4.7,3.5c0.5,0.2,1.1,0.3,1.6,0.4c3.4,0.5,6.9,1.3,10.4,1.6
	c4.3,0.3,8.5-0.5,12.7-1.4c3-0.7,5.9-1.7,8.5-3.2c-1.7,0.4-3.4,0.9-5.1,1.4c-1.4,0.5-2.8,0.9-4.2,1.1c-2.1,0.3-4.2,0.4-6.3,0.5
	c-4.2,0.1-13.1,0-13.3-0.1c-1.2-0.5-2.3-1.1-3.5-1.6C9.8,72.2,7.9,71.5,6.3,70.9z M41.8,74.1c0.6,0.8,1.2,1.5,1.6,2.2
	c2.4,3.8,4.8,7.6,7.2,11.4c0.2,0.4,0.8,0.5,1.3,0.7c0.1-0.4,0.2-0.9,0.3-1.3c0-0.3-0.1-0.5-0.2-0.7c-0.8-1.6-1.6-3.3-2.6-4.8
	c-1.6-2.5-3.3-4.9-4.9-7.4c-0.5-0.7-0.8-1-1.6-0.5C42.6,73.8,42.2,73.9,41.8,74.1z M19.6,20.6c-0.5-1.1-0.8-2.2-1-3.3
	c0.1-2.5-0.4-5-1.4-7.3c-0.6-1.7-1.5-3.3-2.7-4.7c-0.1,0.3-0.1,0.6-0.2,0.9c0.1,2.2,0.1,4.5,0.5,6.7c0.3,2.3,1.1,4.5,2.4,6.4
	C17.8,20,18.6,20.5,19.6,20.6z M37,75.6c2,5.4,3,11,5.5,16.2l0.5-0.1c-1-5.5-2-11.1-3-16.7c-0.7,0.1-1.2,0.2-1.7,0.3
	C37.8,75.3,37.4,75.5,37,75.6z M14.6,2.7c5.2,3.6,8.8,8,8.2,14.8c1.5-1.2,1.3-2.8,1.2-4.3C23.5,8.3,19.7,3.4,14.6,2.7z M13.5,28.8
	c0.5,0.2,1,0.5,1.3,0.4c0.7-0.2,1.4-0.5,2-0.9c0.1-0.1,0.1-0.7,0-0.9c-1.5-1.8-3-3.7-4.6-5.4c-0.2-0.2-0.8-0.2-0.9-0.1
	c-0.2,0.3-0.3,0.8-0.3,1.2C11.8,25,12.7,27,13.5,28.8z M21.5,21.2L21,21.4c0.2,2.2,0.3,4.4,0.5,6.6c0,0.4,0.5,1,0.8,1
	c1-0.1,1.9-0.2,2.9-0.4c0.1,0,0.1-0.5,0-0.7c-0.1-0.4-0.2-0.8-0.3-1.2c-0.2-0.9-0.5-1.8-0.9-2.6c-0.5-0.8-1.1-1.6-1.8-2.3
	C22,21.6,21.8,21.4,21.5,21.2z M21,19.6c2-3.4-0.5-11.3-4.3-13.5c0.3,0.7,0.6,1.2,0.8,1.7c1,2.4,2.3,4.7,2.2,7.5
	C19.7,16.8,19.7,18.3,21,19.6z M15,34.2c-0.8,4.5,1.3,8.2,2.1,12.4c0.9-0.6,1.1-1.8,0.5-2.7c-1.1-2.4-2-4.9-1.5-7.6
	C16.2,35.3,15.9,34.8,15,34.2z M32.4,51.3c1.8-1.3,2.2-3.7,0.9-5.5c-0.1-0.1-0.2-0.3-0.3-0.4c-0.5,0.1-0.9,0.3-1.3,0.5
	c-0.2,0.1-0.6,0.5-0.5,0.7C31.5,48.2,32,49.7,32.4,51.3z M28,52.5c0-2-1.6-2.4-2.5-3.5c-0.2,0.6-0.4,1.3-0.5,2
	c0,0.3,0.2,0.7,0.4,0.8C26.2,52.1,27.1,52.3,28,52.5L28,52.5z M4.1,9.4c1.1,2.7,1.4,5.8,4.2,7.8C6.8,14.5,5.5,12,4.1,9.4L4.1,9.4z
	 M23.8,49.7c0.2-0.5,0.5-1,0.9-1.4c0.7-0.6,0.2-0.9-0.2-1.3C23.5,48,23.3,48.6,23.8,49.7z"/>
<path class="st0" d="M24.3,62.9c0,3.1-1.8,4.4-3.9,5.4c-2.6,1.2-5.7,0.4-7.3-2c-1-1.5-1.4-3.4-1.1-5.1c0.6-2.6,2.6-3.8,5-4.6
	c0.2-0.1,0.4-0.1,0.5,0c2.3,0.3,4.4,1.4,5.9,3.2c0.5,1,0.9,2.1,1.1,3.2L24.3,62.9z M17.3,67.1c0,0.4,0.1,0.8,0.9,0.6
	c0.5-0.1,1.1-0.2,1.6-0.3c2.7-0.7,3.7-3,2.3-5.3c-0.1-0.2-0.5-0.3-0.7-0.5c0,0.3,0,0.5,0,0.8c0.1,0.8,1.1,1.6,0.1,2.5
	c-0.2,0.2-0.4,0.4-0.6,0.7c-0.1-0.4-0.4-0.8-0.3-1.1c0.2-0.8-0.1-1.3-1-1.9c0.1,0.7,0.2,1.4,0.4,2s0.6,1.1-0.1,1.7
	c-0.5-0.5-1-0.9-1.5-1.3l-0.2,0.3l1,0.9L17.3,67.1z M13.9,60.5l0.5-0.2l0.9,1.7l0.1-0.1c-0.3-0.9-0.6-1.7-0.9-2.6l0.4-0.2
	c0.3,0.4,0.7,0.8,1,1.2c0.2,0.2,0.6,0.5,0.8,0.4c0.4-0.2,0.9-0.4,1.3-0.7c-1.7,0-2.1-0.1-2.2-1c1.9,0.2,1.9,0.2,1.9-1.4
	c-1.5-0.2-4.2,1.9-4.4,3.5c0.1,1.3,1,2.5,2.2,3.1C15.2,62.9,13.9,61.9,13.9,60.5L13.9,60.5z M23.1,62.3c-0.1-1.3-0.7-2.4-1.7-3.2
	c-0.5-0.5-1-0.6-1.5,0l-1.1-0.8l-0.2,0.2l1.8,3.2L20.3,60C21.6,59.8,22.2,60.3,23.1,62.3z M16.1,67.1c-0.6-0.7-1.3-1.4-2-2.3
	C13.9,66,14.5,66.7,16.1,67.1L16.1,67.1z M18,63.2l0.4-0.1c0-0.4,0-0.9-0.2-1.3c-0.1-0.2-0.7-0.1-1.4-0.1
	C17.4,62.4,17.7,62.8,18,63.2z"/>
<path class="st0" d="M42.5,34.7c-0.2,2.5-1.9,4.6-4.4,5.2c-2.1,0.6-4.4-0.2-5.7-1.9c-1-1.4-1.2-3.3-0.4-4.8c0.6-1.2,1.7-2.2,3-2.7
	c0.5-0.2,1.1-0.2,1.6-0.2c1.1,0.1,2.2,0.2,3.4,0.3c1,0.1,1.8,0.9,2,1.8C42.1,33.2,42.3,34,42.5,34.7z M39.4,38
	c1.1-0.5,1.8-1.6,1.8-2.9c0.2-1.5-1-3.4-2.4-3.5c-0.5,0-0.9,0.1-1.4,0.2c-1.1,0.2-1.9,1-2.1,2.1c0,0.8,0.5,1.4,1.3,1.6l-0.9-0.8
	l3-2.7l0.3,0.2c-0.2,0.8,0.6,1.6,0,2.5c-0.1,0.1,0.2,0.8,0.4,0.8c1.1,0.3,0.7,0.9,0.3,1.5C39.5,37.2,39.5,37.6,39.4,38z M37.8,37.5
	c-0.5,1.2-1.2,0.8-1.7,0.2c-0.7-0.8-1.2-1.7-1.8-2.5s-1-1.6,0.1-2.4c0.3-0.3,0.5-0.6,0.6-1l-0.3-0.2c-0.6,0.7-1.1,1.4-1.7,2.1
	c-0.5,0.7,0.3,1.1,0.5,1.5c0.6,1.1,1.3,2.1,2,3.1c0.2,0.3,0.4,0.6,0.7,1l2.6-0.7L37.8,37.5z M32.9,35.8c-0.3,1.1,0.4,2.1,1.4,2.4
	c0.1,0,0.1,0,0.2,0L32.9,35.8z"/>
<path class="st0" d="M35.7,68.7c-1.4,0.1-2.6-0.6-3.3-1.8c-0.2-0.2-0.3-0.5-0.3-0.8c0.2-1.7,0.2-3.5,1.4-5c1.6-2.2,4.6-2.9,7-1.7
	c1.4,0.6,2.2,2,2.1,3.5c0,2.4-1.6,4.6-4,5.2C37.7,68.4,36.7,68.6,35.7,68.7z M35.7,67.5c2.5,0.1,4.4-0.9,5.1-2.2
	c0.3-0.5,0.3-1.2-0.2-1.6c-0.5-0.6-1-1.2-1.5-1.9c1.3-0.3,1.5,0.9,2.2,1.3c-0.2-1.8-0.8-2.6-2.7-3.1c-1.3-0.4-2.6,0.5-3.6,1.9
	c-0.9,1.1-0.8,1.2-0.3,1.9c0.1-0.4,0.2-0.9,0.3-1.4l1.2,0.9c-0.1-0.7-0.2-1.2-0.4-1.9l2.1,0.3V61l0.3-0.1l1.6,3.8
	c-0.4,0.5-0.9,0.8-0.9,1.1c0,0.8-0.4,0.6-0.9,0.7C37.3,66.5,36.3,66.5,35.7,67.5z M33.6,64.7c-0.5,1.2,0.2,1.6,0.9,2L33.6,64.7z"/>
<path class="st0" d="M51.7,35.8c2.9,0,5.3,2.5,4.9,5.3c-0.2,1.1-0.8,2.2-1.6,3c-2.6,2.3-5.5,3.4-8.2,0.2c-1.2-1.4-0.8-2.9-0.5-4.4
	C47,37.4,49.2,35.7,51.7,35.8z M51.4,40.2c0.1-0.2,0.1-0.4,0.3-0.6c0.2-0.3,0.6-0.7,0.7-0.6c0.6,0.2,1.1,0.6,1.5,1.1
	c0.2,0.5,0.2,1-0.1,1.5c-0.6,0.5-1.5,1.1-2.2,1c-0.8-0.3-1.3-1-1.6-1.8c-0.2-0.7,0-1.5,0.3-2.2c0.4-0.6,0.9-1.1,1.5-1.5
	c-2.7-0.4-4.7,1.5-4.8,4.8c0,1.8,1.5,3.3,3.3,3.3h0.1c2.1-0.4,3.9-1.8,4.7-3.8c0.4-1.3-0.3-2.7-1.6-3.1l0,0c-1-0.2-2.1,0.4-2.3,1.5
	C51.4,39.9,51.4,40.1,51.4,40.2z"/>
<path class="st0" d="M56.7,54c-0.4,2.6-2.3,4.8-4.8,5.5c-3.5,0.7-4.3,0.1-5.5-3.1c-0.7-1.6-0.2-3.5,1.2-4.6c1.6-1.5,3.3-2.9,5.8-2.1
	C55.3,50.4,56.6,52.1,56.7,54z M47.3,55.6c0.1,0.3,0.2,0.9,0.3,1.4c0.3,1,1.2,1.8,2.2,1.9c2.1,0,4.1-1.1,5.1-3c0.5-0.9,0.5-2,0.2-3
	c-0.6-1.8-1.8-2.4-3.7-2.1c-1.5,0.4-2.7,1.5-3.1,3c-0.1,0.7-0.1,1.4,0.8,1.5c0.2-0.6,0.4-1.2,0.6-1.8c0.3-0.9,1.1-0.7,1.7-0.5
	c0.4,0.2,0.7,0.6,0.8,1c0.2,1.1-0.5,2.1-1.6,2.3c-0.1,0-0.3,0-0.4,0C49.3,56.1,48.3,55.9,47.3,55.6z"/>
</svg>
