<?xml version="1.0" encoding="utf-8"?>
<!-- Generator: Adobe Illustrator 24.3.0, SVG Export Plug-In . SVG Version: 6.00 Build 0)  -->
<svg version="1.1" id="Calque_1" xmlns="http://www.w3.org/2000/svg" xmlns:xlink="http://www.w3.org/1999/xlink" x="0px" y="0px"
	 viewBox="0 0 95 67" style="enable-background:new 0 0 95 67;" xml:space="preserve">
<style type="text/css">
	.st0{fill:#FFFFFF;}
</style>
<path class="st0" d="M39.5,28.3c1.4-1.4,3-2.8,4.6-4c2.4-1.6,4.6-3.6,7.4-4.7c1.6-0.8,3.3-1.7,4.8-2.8c0.8-0.5,1.7-0.8,2.6-1.2
	c1.2-0.7,2.4-1.4,3.6-2.2c1-0.5,2.3-0.9,3.3-1.4c2.4-1.2,4.8-2.1,7.5-2.5c1.1-0.1,2.4-0.1,3.5,0.1c1.2,0.2,2.5,2.6,2.1,3.9
	c-0.6,1.9-2,3.3-3.8,4c-1.5,0.8-3.2,1.3-4.8,1.4c-0.2,0-0.3,0.1-0.5,0.3c0.2,1-0.6,0.7-1,0.6c-1.1-0.1-2.2,0.1-3.1,0.7
	c-3.6,1.6-7.3,3.3-10.9,5.1c-2.2,1.1-4.1,2.7-5.6,4.6c-0.8,1.1-1.7,2.2-2.7,3.3c-0.3,0.2-0.3,0.7-0.1,0.9c0.1,0.1,0.2,0.2,0.4,0.2
	c1.1,0.4,2.3,0.6,3.4,0.7c4.9,0.1,9.7-1.1,14.4-2.3c3.4-0.8,6.6-2.1,9.9-3.1c1.3-0.4,2.8-0.7,4-1.2c2-0.8,3.7-1.7,5.6-2.7
	c1.1-0.5,2.3-1.1,3.4-1.7c1.5-0.7,3.3-0.7,4.7,0.1c0.3,0.1,0.7,0.1,1.1,0.1c0.7,1.7,0.6,3.7-0.3,5.3c-1.3,2.7-3.6,4.4-6.2,5.8
	c-4,2.2-8.3,3.7-12.8,4.7c-2.4,0.6-4.7,1-7.2,1.4c-2.3,0.4-4.5,0.7-6.8,1c-2.5,0.3-4.8,0.6-7.3,0.7c-1.9,0.1-3.6-0.1-5.5-0.2
	c-0.1,0-0.3,0-0.4,0c0.1,1.1,0.2,2.1,0.3,3.1c0.1,1.4-0.3,2.9-1.2,4.1c-0.3,0.5-0.9,0.7-1.4,0.5c-0.1,0-0.1-0.1-0.2-0.1
	c-1.1-0.6-2.4-1.2-3.6-1.9c-1.2-0.5-2.5-0.9-3.8-1.3c-0.1,0-0.2-0.1-0.3,0c-1.3,0.4-2.7,0.8-4,1.3c-1.3,0.5-2.6,1.1-3.9,1.5
	c-3.7,1.2-7.5,2.4-11.2,3.6c-0.9,0.3-1.7,0.7-2.7,1c-0.3,0.1-0.7-0.1-1.1,0c-2.8,0.6-5.6,1.2-8.3,2c-0.8,0.3-1.7-0.1-2.1-0.9
	c0,0,0,0,0-0.1c0-0.5-0.3-1-0.5-1.5c-0.2-0.6,0-1.3,0.5-1.6c0.8-0.7,0.8-1.1-0.2-1.5c-0.4-0.2-0.9-0.3-1.3-0.5
	c-0.4-0.1-0.6-0.5-0.5-0.8c0-0.2,0.1-0.3,0.3-0.4c0.6-0.7,1.2-1.4,1.9-2.2c0.2-0.4,0.5-0.6,0.9-0.9c2.4-1,4.7-2.1,7-3.1
	c3.1-1.4,6.1-3,9.1-4.4c0.4-0.2,0.7-0.4,1-0.7c0.7-0.5,1.5-0.5,2.3-0.2c0.4,0.1,0.9,0.2,1.3,0.1c1.6-0.8,3.3-1.6,4.8-2.8
	c1.6-1.2,3-2.9,3.9-4.7c0.4-1.1,0.7-2.3,0.8-3.4c0.1-0.4,0.2-0.7,0.3-1.1c0.3-0.8,0.8-0.7,1.4-0.3C37.3,26.9,38.5,27.6,39.5,28.3z
	 M56.1,24l-1.1-0.6l-0.2,0.2l0.3,1L56.1,24l2-0.8l6.9-3c-0.4-0.2-0.6-0.3-0.8-0.3c-0.8-0.3-1.5,0.3-2.3,0.4c-1.2,0-1.9,0.4-2,1.4
	c-0.5-0.2-1-0.2-1.6-0.2c-1,0.4-0.2,1.1-0.3,1.7l-1.3-0.9C56.1,22.6,56.1,22.6,56.1,24L56.1,24z M40.1,29c0.2,0.2,0.5,0.4,0.8,0.6
	c2.6,2.4,4.3,5.5,5.1,8.7c0.3,1.1,0.4,2.3,0.6,3.4c0.1,0.4,0.4,0.7,0.7,0.9c1.1,0.3,2.3,0.5,3.4,0.5c1.7,0,3.5-0.2,5.3-0.3
	c3.8-0.2,7.6-0.7,11.3-1.5c4.9-1.1,10-2.1,14.7-4c2.7-1,5.1-2.5,7.4-4.2c1.3-1,2.4-2.4,3-3.9c0.7-2,0.1-3.6-1.5-4
	c-1.3-0.2-2.8-0.1-3.9,0.5c-3.1,1.4-6.2,2.9-9.3,4.3c-0.2,0.1-0.4,0.3-0.6,0.5c-0.9,0.8-1.7,1.7-2.8,2.6c-2.4,1.7-5,2.9-8,3.3
	c-2.9,0.6-5.8,0.6-8.6-0.1C56.9,36.1,56,36,55,36.1c-1.4,0-2.9,0.4-4.2,0.3c-1.5-0.1-3-0.4-4.4-0.8c-0.7-0.1-1.1-0.8-0.9-1.5
	c0-0.2,0.1-0.3,0.2-0.5c0.3-0.7,0.7-1.4,1.2-2.1c1.3-1.5,3-2.7,3.8-4.7c0.7-1.2,1.6-2.4,2.8-3.3c1.6-1.5,3.7-2.8,5.9-3.5
	c1.2-0.5,2.6-0.8,4-1c3.8,0,7.6-0.6,11.2-2.1c1.9-0.8,3-2.8,3-4.7c0-0.8-0.5-1.5-1.3-1.7c-1.1-0.2-2.3-0.2-3.4-0.1
	c-4,0.9-7.8,2.5-11.3,4.6c-1.1,0.7-2.4,1.3-3.6,1.9c-1.9,0.9-3.7,1.6-5.5,2.7c-2.8,1.6-5.5,3.5-8,5.2c-0.9,0.7-1.7,1.5-2.6,2.4
	C41.4,27.7,40.8,28.2,40.1,29z M14.2,51.4c0.2,0,0.4,0,0.5,0c3.4-0.6,6.7-1.5,9.9-2.8c1.6-0.6,3.4-1.1,5-1.9c0.4-0.2,0.8-0.6,1-1
	c0.6-1.1,1-2.3,1.6-3.5c0.2-0.3,0.3-0.6,0.4-1c-0.4-1.1,0.3-1.7,0.9-2.4c-0.7-0.7-1.4-1.4-2.3-2.2c-0.3-0.4-0.9-0.5-1.3-0.1l0,0
	c-1.7,1.5-3.9,2.6-6.2,3c-0.2,0-0.4,0.1-0.4,0.3c-0.4,0.9-0.7,1.7-1,2.7c-0.2,0.6-0.4,1.2-0.7,2.2c-0.1-0.2-0.2-0.4-0.3-0.7
	c0.2-1,0.5-2,0.7-3c0.1-0.5,0.1-0.9,0.1-1.4c-0.5,0.1-1,0.2-1.4,0.3c-0.1,0.1-0.2,0.1-0.3,0.2c-1.6,1-3.3,2.1-5,3
	c-2.6,1.3-5.2,2.5-7.9,3.7c-0.4,0.3-0.9,0.5-1.3,0.7c-1,0.2-1.9,0.9-2.2,1.9c0.9-0.2,1.7-0.5,2.6-0.7c1.4-0.2,2.8-0.7,3.8-1.6
	c0.6-0.4,1.4-0.5,2.2-0.4c0.5,0.1,1-0.1,1.3-0.5c1.4-1.9,3.9-2.7,6.1-2c0.6,0.2,1.2,0.5,2,0.8c-0.1,0.8-0.3,1.5-0.5,2.3
	c-1,2.1-3.3,3.2-5.6,3C14.6,50,14.3,50.6,14.2,51.4z M43.5,49.3c0.1-0.6,0.2-1.3,0.2-2c-0.1-1.7-0.3-3.4-0.6-5
	c-0.2-1.4-0.6-2.8-1.1-4.1c-1.1-2.6-1.5-2.5-3.6-0.9c-1.3,0.8-2,2.4-1.7,3.9c0.1,1.5,0.3,3.1,0.6,4.5c0.1,0.6,0.5,1.2,1.1,1.6
	C39.9,48.1,41.7,48.6,43.5,49.3L43.5,49.3z M38.7,34.8c-1-1.7-2.3-3.3-3.7-4.6l-3.5,5.5c0.7,0.6,1.5,1.4,2.4,2.2
	c1.2,0.9,1.3,0.9,0.5,2.3c-0.1,0.3-0.1,0.6,0,0.8c0.2,0.2,0.4,0.2,0.6,0.2c0.3-0.2,0.5-0.4,0.6-0.8c-0.1-1.4,0.6-2.8,1.9-3.5
	c1.2-0.8,2.6-1.5,3.9-2.3c0.6-0.2,1.2-0.4,2-0.4c-1.9-3.1-4.4-5.7-7.6-7.3C35,27.7,35.2,29,36,29.7c0.8,0.8,1.6,1.7,2.4,2.7
	C39,33.2,39.1,34.1,38.7,34.8z M3.6,54.4c0.2,0.5,0.3,0.8,0.5,1.1c0.6,1.2,1,1.4,2.3,1c0.9-0.2,1.7-0.5,2.7-0.8
	c5.8-1.5,11.5-3.2,17.3-4.6c1.2-0.2,2.3-1,2.7-2.3c0.1-0.3,0.1-0.5,0.1-0.8c-0.3,0-0.5,0-0.8,0c-2.8,0.9-5.6,2-8.4,2.8
	c-2.7,0.7-5.3,1.4-8,2C9.2,53.3,6.4,53.9,3.6,54.4z M46.8,46.5L46.8,46.5c-0.1-0.4-0.2-0.9-0.2-1.3c-0.3-1.2-0.6-2.5-0.9-3.7
	c-0.4-1.6-0.7-3.3-1.2-4.9c-0.3-1.1-0.8-1.3-2.1-1.2c-0.7,0.1-0.9,0.4-0.5,1c0.6,0.8,1,1.7,1.3,2.8c0.6,3.4,1.6,6.8,1.3,10.4
	c0.1,0.4,0.3,0.7,0.7,0.8c0.3,0,0.6-0.2,0.7-0.5C46.4,48.7,46.6,47.6,46.8,46.5z M15.8,49.5c1.1-0.3,2.3-0.7,3.3-1.2
	c0.6-0.6,0.9-1.3,1-2.2C20,45.6,19.6,45.2,19,45c-1.5-0.3-3.2,0.1-4.3,1.1c-0.7,0.5-0.9,1.4-0.6,2.3C14.2,48.9,15.1,49.1,15.8,49.5z
	 M36.2,45.4L36.2,45.4c0-0.4,0-0.8-0.1-1.1c-0.1-0.5-0.2-1.1-0.4-1.6c-0.4-0.8-1,0.1-1.4-0.1c-1.1-0.4-1.3,0.3-1.5,1
	c-0.2,0.5-0.5,0.9-0.7,1.4c-0.3,0.3-0.3,0.8,0,1c0.1,0.1,0.2,0.2,0.3,0.2c0.5,0.2,0.9,0.5,1.2,0.9c0.6,0.6,1.5,0.7,2.3,0.2
	c0.7-0.3,0.4-0.9,0.3-1.4C36.2,45.7,36.2,45.5,36.2,45.4L36.2,45.4z M3.5,50.5L3.4,51c0.5,0.3,1,0.5,1.6,0.6
	c1.2-0.1,2.5-0.4,3.8-0.6c0.5-0.1,1,0,1-0.7c0-0.5-0.4-1-0.9-1c-0.1,0-0.2,0-0.3,0C6.9,49.6,5.3,50,3.5,50.5L3.5,50.5z M72.9,33.2
	c-0.1-0.1-0.1-0.3-0.2-0.4c-0.3-0.3-0.6-0.5-1-0.7c-0.6,0-0.3,0.6-0.4,1c0,0.2-0.1,0.4-0.3,0.5c-0.2,0-0.4-0.1-0.5-0.2
	c-0.1-0.2-0.2-0.4-0.2-0.6l-1.3,0.1c0,0.2,0,0.4,0,0.7c0.1,1,0.4,1.2,1.3,0.8C71.2,34.1,72,33.7,72.9,33.2L72.9,33.2z M66.5,35.5
	c-0.8-1.7-0.8-1.7-3-0.9C63.6,36,63.8,36,66.5,35.5L66.5,35.5z M5.6,52.6l0.1,0.5l8-1.5l-0.1-0.3C10.9,51.7,8.2,52.1,5.6,52.6z
	 M33.3,48.5l-0.1-0.3c-0.2-0.1-0.4-0.2-0.6-0.3c-0.6-0.4-1.4-0.3-1.9,0.3c-0.2,0.3-0.3,0.6-0.2,0.9c0.1,0.2,0.2,0.3,0.4,0.4
	C31.7,49.2,32.5,48.8,33.3,48.5z M69,34.9c-0.2-0.4-0.5-0.8-0.9-1.2c-0.3-0.2-0.6-0.2-0.9-0.2c-0.2,0.4-0.4,0.8-0.4,1.3
	c0.3,0.3,0.6,0.4,1,0.4C68.2,35.2,68.6,35.1,69,34.9z M75.4,30.8c-0.4,0.1-0.9,0.3-1.3,0.4c-1,0.3-1,0.5,0,1.5L75.4,30.8z
	 M52.1,26.3c1.5-0.1,2.4-1,1.6-1.9L52.1,26.3z M58.9,35.5v0.3l2.5,0.1C60.5,34.6,59.7,35.4,58.9,35.5z M62.7,36.1l0.2-0.3
	c-0.3-0.9-0.3-0.9-1.3-0.7L62.7,36.1z"/>
</svg>
