<?xml version="1.0" encoding="utf-8"?>
<!-- Generator: Adobe Illustrator 24.3.0, SVG Export Plug-In . SVG Version: 6.00 Build 0)  -->
<svg version="1.1" xmlns="http://www.w3.org/2000/svg" xmlns:xlink="http://www.w3.org/1999/xlink" x="0px" y="0px"
	 viewBox="0 0 100 92" style="enable-background:new 0 0 100 92;" xml:space="preserve">
<style type="text/css">
	.st0{fill:#FFFFFF;stroke:#FFFFFF;stroke-miterlimit:10;}
</style>
<g id="Calque_2">
	<path class="st0" d="M19.6,29.8l-4.7,6.6l6.6,16.7L29.6,65l10.2,10.9l2.7,3l13.9-7l10.9-10.5l9.3-11.7L81.6,35l-4.7-7.3l-10.8-3.6
		l-13.3,2.7L42.6,35c0,0-5.2-1.2-11.1-7.1S19.6,29.8,19.6,29.8"/>
</g>
<g id="Calque_1">
	<path class="st0" d="M67.5,22.7c-7.7-0.5-15.4,2.1-21.3,7.1c-1,0.9-1.8,2-2.8,3c-0.8,0.8-1.3,0.8-2.2,0.1c-1.9-1.6-3.1-3.9-5-5.5
		c-5-4.3-13-5.1-17.9-0.3c-5,4.8-5.4,12.3-3.4,18.6c2.2,7,6.5,13.6,11,19.4c2.3,3,4.7,5.8,7.3,8.5c2.4,2.5,5,5.5,8.3,6.8
		c3.6,1.4,7.3-0.4,10.3-2.4c2.9-1.9,5.7-3.9,8.3-6.1c5.3-4.5,10.1-9.7,14.1-15.4c2-2.8,3.8-5.8,5.4-8.9c1.9-3.3,3-6.9,3.4-10.6
		c0.4-6.8-4.6-11.7-10.8-13.5C70.6,23.1,69,22.8,67.5,22.7c-1.9-0.2-1.9,2.8,0,3c5.3,0.5,11.5,3.2,12.3,9.1c0.4,3.3-0.8,6.7-2.2,9.7
		c-1.4,3-3,5.8-4.9,8.5c-3.4,5.2-7.5,10-12.1,14.2c-2.3,2.2-4.8,4.2-7.4,6c-2.5,1.8-5.6,4.3-8.9,4.5s-5.9-3.2-8-5.3
		c-2.4-2.4-4.6-4.8-6.7-7.4c-4.4-5.3-8-11.2-10.9-17.5c-2.4-5.6-3.4-12.7,0.9-17.7c1.8-2.2,4.6-3.3,7.4-3.1c2.8,0.2,5.5,1.3,7.6,3.3
		c1.8,1.9,3.2,4.2,5.4,5.7c2.6,1.7,4.9,0,6.6-2.1c4.9-5.8,13.3-8.5,20.7-8C69.4,25.8,69.4,22.8,67.5,22.7z"/>
	<path class="st0" d="M18.4,78.2c2.3,3.2,5.6,5.6,9.3,6.9c0.8,0.2,1.6-0.3,1.8-1c0.2-0.8-0.3-1.6-1-1.8c-0.2-0.1-0.4-0.1-0.6-0.2
		c-0.1,0-0.2-0.1-0.3-0.1c0,0-0.4-0.1-0.2-0.1s-0.2-0.1-0.2-0.1L27,81.5c-0.2-0.1-0.4-0.2-0.6-0.3c-0.8-0.4-1.5-0.8-2.2-1.3
		c-0.1-0.1-0.1-0.1-0.2-0.2c-0.3-0.3,0.1,0.1-0.1-0.1c-0.2-0.1-0.3-0.3-0.5-0.4c-0.3-0.3-0.6-0.6-0.9-0.9s-0.6-0.6-0.9-0.9
		c-0.1-0.2-0.3-0.3-0.4-0.5c-0.1-0.1-0.1-0.1,0,0c-0.1-0.1-0.2-0.2-0.2-0.3c-0.4-0.7-1.3-0.9-2.1-0.5C18.2,76.5,17.9,77.4,18.4,78.2
		L18.4,78.2z"/>
	<path class="st0" d="M75.8,17.9c0.4,0,0.8,0,1.2,0c0.2,0,0.4,0,0.6,0c0.1,0,0.6,0.1,0.3,0c0.8,0.1,1.5,0.3,2.2,0.5s1.3,0.5,1.9,0.8
		c0.3,0.2,0.7,0.4,1,0.6c0,0,0.5,0.4,0.3,0.2c0.2,0.1,0.3,0.2,0.5,0.4c0.6,0.6,1.5,0.6,2.1,0s0.6-1.5,0-2.1l0,0
		c-2.8-2.4-6.4-3.7-10.1-3.5c-0.8,0-1.5,0.7-1.5,1.5C74.3,17.3,74.9,17.9,75.8,17.9L75.8,17.9z"/>
	<path class="st0" d="M50.3,66.8l3.1-2.8c0.6-0.6,0.6-1.5,0-2.1s-1.5-0.6-2.1,0l-3.1,2.8c-0.6,0.6-0.6,1.5,0,2.1
		C48.7,67.3,49.7,67.4,50.3,66.8L50.3,66.8z"/>
</g>
</svg>
